<svg version="1.1" viewBox="0.0 0.0 600.0 371.0" fill="none" stroke="none" stroke-linecap="square" stroke-miterlimit="10" width="600" height="371" xmlns:xlink="http://www.w3.org/1999/xlink" xmlns="http://www.w3.org/2000/svg"><path fill="#ffffff" d="M0 0L600.0 0L600.0 371.0L0 371.0L0 0Z" fill-rule="nonzero"/><path stroke="#333333" stroke-width="1.0" stroke-linecap="butt" d="M45.5 332.5L581.5 332.5" fill-rule="nonzero"/><path stroke="#cccccc" stroke-width="1.0" stroke-linecap="butt" d="M45.5 262.5L581.5 262.5" fill-rule="nonzero"/><path stroke="#cccccc" stroke-width="1.0" stroke-linecap="butt" d="M45.5 192.5L581.5 192.5" fill-rule="nonzero"/><path stroke="#cccccc" stroke-width="1.0" stroke-linecap="butt" d="M45.5 122.5L581.5 122.5" fill-rule="nonzero"/><path stroke="#cccccc" stroke-width="1.0" stroke-linecap="butt" d="M45.5 51.5L581.5 51.5" fill-rule="nonzero"/><clipPath id="id_0"><path d="M45.55 51.916668L581.45 51.916668L581.45 332.45L45.55 332.45L45.55 51.916668Z" clip-rule="nonzero"/></clipPath><path fill="#34a853" fill-opacity="0.3019608" clip-path="url(#id_0)" d="M45.55 57.527332L224.18333 150.10333L402.81668 158.51933L581.45 150.10333L581.45 332.45L402.81668 332.45L224.18333 332.45L45.55 332.45Z" fill-rule="nonzero"/><path fill="#0000ff" fill-opacity="0.3019608" clip-path="url(#id_0)" d="M45.55 79.97L224.18333 248.29L402.81668 276.34332L581.45 248.29L581.45 332.45L402.81668 332.45L224.18333 332.45L45.55 332.45Z" fill-rule="nonzero"/><path stroke="#34a853" stroke-width="2.0" stroke-linecap="butt" clip-path="url(#id_0)" d="M45.55 57.527332L224.18333 150.10333L402.81668 158.51933L581.45 150.10333" fill-rule="nonzero"/><path stroke="#0000ff" stroke-width="2.0" stroke-linecap="butt" clip-path="url(#id_0)" d="M45.55 79.97L224.18333 248.29L402.81668 276.34332L581.45 248.29" fill-rule="nonzero"/><path fill="#000000" fill-opacity="0.0" clip-path="url(#id_0)" d="M48.55 57.527332C48.55 59.18419 47.206856 60.527332 45.55 60.527332C43.893147 60.527332 42.55 59.18419 42.55 57.527332C42.55 55.87048 43.893147 54.527332 45.55 54.527332C47.206856 54.527332 48.55 55.87048 48.55 57.527332Z" fill-rule="nonzero"/><path fill="#000000" fill-opacity="0.0" clip-path="url(#id_0)" d="M227.18333 150.10333C227.18333 151.7602 225.8402 153.10333 224.18333 153.10333C222.52647 153.10333 221.18333 151.7602 221.18333 150.10333C221.18333 148.44647 222.52647 147.10333 224.18333 147.10333C225.8402 147.10333 227.18333 148.44647 227.18333 150.10333Z" fill-rule="nonzero"/><path fill="#000000" fill-opacity="0.0" clip-path="url(#id_0)" d="M405.81668 158.51933C405.81668 160.1762 404.4735 161.51933 402.81668 161.51933C401.15982 161.51933 399.81668 160.1762 399.81668 158.51933C399.81668 156.86247 401.15982 155.51933 402.81668 155.51933C404.4735 155.51933 405.81668 156.86247 405.81668 158.51933Z" fill-rule="nonzero"/><path fill="#000000" fill-opacity="0.0" clip-path="url(#id_0)" d="M584.45 150.10333C584.45 151.7602 583.1069 153.10333 581.45 153.10333C579.79315 153.10333 578.45 151.7602 578.45 150.10333C578.45 148.44647 579.79315 147.10333 581.45 147.10333C583.1069 147.10333 584.45 148.44647 584.45 150.10333Z" fill-rule="nonzero"/><path fill="#000000" fill-opacity="0.0" clip-path="url(#id_0)" d="M48.55 79.97C48.55 81.626854 47.206856 82.97 45.55 82.97C43.893147 82.97 42.55 81.626854 42.55 79.97C42.55 78.31315 43.893147 76.97 45.55 76.97C47.206856 76.97 48.55 78.31315 48.55 79.97Z" fill-rule="nonzero"/><path fill="#000000" fill-opacity="0.0" clip-path="url(#id_0)" d="M227.18333 248.29C227.18333 249.94685 225.8402 251.29 224.18333 251.29C222.52647 251.29 221.18333 249.94685 221.18333 248.29C221.18333 246.63315 222.52647 245.29 224.18333 245.29C225.8402 245.29 227.18333 246.63315 227.18333 248.29Z" fill-rule="nonzero"/><path fill="#000000" fill-opacity="0.0" clip-path="url(#id_0)" d="M405.81668 276.34332C405.81668 278.00018 404.4735 279.34332 402.81668 279.34332C401.15982 279.34332 399.81668 278.00018 399.81668 276.34332C399.81668 274.6865 401.15982 273.34332 402.81668 273.34332C404.4735 273.34332 405.81668 274.6865 405.81668 276.34332Z" fill-rule="nonzero"/><path fill="#000000" fill-opacity="0.0" clip-path="url(#id_0)" d="M584.45 248.29C584.45 249.94685 583.1069 251.29 581.45 251.29C579.79315 251.29 578.45 249.94685 578.45 248.29C578.45 246.63315 579.79315 245.29 581.45 245.29C583.1069 245.29 584.45 246.63315 584.45 248.29Z" fill-rule="nonzero"/><path fill="#000000" d="M33.05 332.21564Q33.05 330.6844 33.3625 329.7625Q33.675 328.825 34.284374 328.325Q34.909374 327.825 35.846874 327.825Q36.534374 327.825 37.05 328.10626Q37.58125 328.3875 37.925 328.91876Q38.26875 329.4344 38.45625 330.1844Q38.64375 330.9344 38.64375 332.21564Q38.64375 333.73126 38.33125 334.65314Q38.034374 335.575 37.409374 336.09064Q36.8 336.59064 35.846874 336.59064Q34.6125 336.59064 33.89375 335.7Q33.05 334.6375 33.05 332.21564ZM34.128124 332.21564Q34.128124 334.325 34.628124 335.02814Q35.128124 335.73126 35.846874 335.73126Q36.58125 335.73126 37.065624 335.02814Q37.565624 334.325 37.565624 332.21564Q37.565624 330.09064 37.065624 329.40314Q36.58125 328.7 35.83125 328.7Q35.1125 328.7 34.675 329.3094Q34.128124 330.09064 34.128124 332.21564Z" fill-rule="nonzero"/><path fill="#000000" d="M31.596874 265.30106L31.596874 266.31668L25.909374 266.31668Q25.909374 265.94168 26.034374 265.5823Q26.253124 265.00418 26.721874 264.44168Q27.20625 263.87918 28.1125 263.1448Q29.51875 261.98856 30.003124 261.31668Q30.503124 260.6448 30.503124 260.05106Q30.503124 259.42606 30.05 259.00418Q29.596874 258.56668 28.878124 258.56668Q28.1125 258.56668 27.659374 259.0198Q27.20625 259.47293 27.190624 260.28543L26.1125 260.17606Q26.221874 258.9573 26.940624 258.3323Q27.675 257.69168 28.909374 257.69168Q30.14375 257.69168 30.8625 258.37918Q31.58125 259.06668 31.58125 260.0823Q31.58125 260.59793 31.3625 261.09793Q31.159374 261.5823 30.659374 262.1448Q30.175 262.69168 29.05 263.6448Q28.096874 264.44168 27.815624 264.73856Q27.55 265.0198 27.378124 265.30106L31.596874 265.30106ZM33.05 264.06668L34.159374 263.97293Q34.284374 264.78543 34.721874 265.19168Q35.175 265.59793 35.815624 265.59793Q36.565624 265.59793 37.096874 265.0198Q37.628124 264.44168 37.628124 263.50418Q37.628124 262.59793 37.1125 262.0823Q36.6125 261.55106 35.784374 261.55106Q35.284374 261.55106 34.8625 261.78543Q34.45625 262.0198 34.221874 262.37918L33.2375 262.25418L34.065624 257.84793L38.346874 257.84793L38.346874 258.84793L34.909374 258.84793L34.45625 261.16043Q35.221874 260.61356 36.065624 260.61356Q37.190624 260.61356 37.95625 261.3948Q38.7375 262.17606 38.7375 263.41043Q38.7375 264.56668 38.065624 265.42606Q37.2375 266.4573 35.815624 266.4573Q34.64375 266.4573 33.89375 265.80106Q33.159374 265.1448 33.05 264.06668Z" fill-rule="nonzero"/><path fill="#000000" d="M26.05 193.93333L27.159374 193.83958Q27.284374 194.65208 27.721874 195.05833Q28.175 195.46458 28.815624 195.46458Q29.565624 195.46458 30.096874 194.88646Q30.628124 194.30833 30.628124 193.37083Q30.628124 192.46458 30.1125 191.94896Q29.6125 191.41771 28.784374 191.41771Q28.284374 191.41771 27.8625 191.65208Q27.45625 191.88646 27.221874 192.24583L26.2375 192.12083L27.065624 187.71458L31.346874 187.71458L31.346874 188.71458L27.909374 188.71458L27.45625 191.02708Q28.221874 190.48021 29.065624 190.48021Q30.190624 190.48021 30.95625 191.26146Q31.7375 192.04271 31.7375 193.27708Q31.7375 194.43333 31.065624 195.29271Q30.2375 196.32396 28.815624 196.32396Q27.64375 196.32396 26.89375 195.66771Q26.159374 195.01146 26.05 193.93333ZM33.05 191.94896Q33.05 190.41771 33.3625 189.49583Q33.675 188.55833 34.284374 188.05833Q34.909374 187.55833 35.846874 187.55833Q36.534374 187.55833 37.05 187.83958Q37.58125 188.12083 37.925 188.65208Q38.26875 189.16771 38.45625 189.91771Q38.64375 190.66771 38.64375 191.94896Q38.64375 193.46458 38.33125 194.38646Q38.034374 195.30833 37.409374 195.82396Q36.8 196.32396 35.846874 196.32396Q34.6125 196.32396 33.89375 195.43333Q33.05 194.37083 33.05 191.94896ZM34.128124 191.94896Q34.128124 194.05833 34.628124 194.76146Q35.128124 195.46458 35.846874 195.46458Q36.58125 195.46458 37.065624 194.76146Q37.565624 194.05833 37.565624 191.94896Q37.565624 189.82396 37.065624 189.13646Q36.58125 188.43333 35.83125 188.43333Q35.1125 188.43333 34.675 189.04271Q34.128124 189.82396 34.128124 191.94896Z" fill-rule="nonzero"/><path fill="#000000" d="M26.1125 118.58125L26.1125 117.56563L31.675 117.56563L31.675 118.39375Q30.8625 119.26875 30.05 120.72188Q29.253124 122.15938 28.815624 123.69063Q28.4875 124.76875 28.409374 126.05L27.315624 126.05Q27.33125 125.03438 27.70625 123.59688Q28.096874 122.15938 28.8 120.83125Q29.51875 119.50313 30.33125 118.58125L26.1125 118.58125ZM33.05 123.8L34.159374 123.70625Q34.284374 124.51875 34.721874 124.925Q35.175 125.33125 35.815624 125.33125Q36.565624 125.33125 37.096874 124.75313Q37.628124 124.175 37.628124 123.2375Q37.628124 122.33125 37.1125 121.81563Q36.6125 121.28438 35.784374 121.28438Q35.284374 121.28438 34.8625 121.51875Q34.45625 121.75313 34.221874 122.1125L33.2375 121.9875L34.065624 117.58125L38.346874 117.58125L38.346874 118.58125L34.909374 118.58125L34.45625 120.89375Q35.221874 120.34688 36.065624 120.34688Q37.190624 120.34688 37.95625 121.12813Q38.7375 121.90938 38.7375 123.14375Q38.7375 124.3 38.065624 125.15938Q37.2375 126.19063 35.815624 126.19063Q34.64375 126.19063 33.89375 125.53438Q33.159374 124.87813 33.05 123.8Z" fill-rule="nonzero"/><path fill="#000000" d="M23.01875 55.916668L21.971874 55.916668L21.971874 49.197918Q21.58125 49.557293 20.95625 49.932293Q20.346874 50.291668 19.8625 50.463543L19.8625 49.447918Q20.7375 49.026043 21.39375 48.447918Q22.065624 47.854168 22.346874 47.291668L23.01875 47.291668L23.01875 55.916668ZM26.05 51.682293Q26.05 50.151043 26.3625 49.229168Q26.675 48.291668 27.284374 47.791668Q27.909374 47.291668 28.846874 47.291668Q29.534374 47.291668 30.05 47.572918Q30.58125 47.854168 30.925 48.385418Q31.26875 48.901043 31.45625 49.651043Q31.64375 50.401043 31.64375 51.682293Q31.64375 53.197918 31.33125 54.119793Q31.034374 55.041668 30.409374 55.557293Q29.8 56.057293 28.846874 56.057293Q27.6125 56.057293 26.89375 55.166668Q26.05 54.104168 26.05 51.682293ZM27.128124 51.682293Q27.128124 53.791668 27.628124 54.494793Q28.128124 55.197918 28.846874 55.197918Q29.58125 55.197918 30.065624 54.494793Q30.565624 53.791668 30.565624 51.682293Q30.565624 49.557293 30.065624 48.869793Q29.58125 48.166668 28.83125 48.166668Q28.1125 48.166668 27.675 48.776043Q27.128124 49.557293 27.128124 51.682293ZM33.05 51.682293Q33.05 50.151043 33.3625 49.229168Q33.675 48.291668 34.284374 47.791668Q34.909374 47.291668 35.846874 47.291668Q36.534374 47.291668 37.05 47.572918Q37.58125 47.854168 37.925 48.385418Q38.26875 48.901043 38.45625 49.651043Q38.64375 50.401043 38.64375 51.682293Q38.64375 53.197918 38.33125 54.119793Q38.034374 55.041668 37.409374 55.557293Q36.8 56.057293 35.846874 56.057293Q34.6125 56.057293 33.89375 55.166668Q33.05 54.104168 33.05 51.682293ZM34.128124 51.682293Q34.128124 53.791668 34.628124 54.494793Q35.128124 55.197918 35.846874 55.197918Q36.58125 55.197918 37.065624 54.494793Q37.565624 53.791668 37.565624 51.682293Q37.565624 49.557293 37.065624 48.869793Q36.58125 48.166668 35.83125 48.166668Q35.1125 48.166668 34.675 48.776043Q34.128124 49.557293 34.128124 51.682293Z" fill-rule="nonzero"/><path fill="#000000" d="M13.628125 345.2625Q13.628125 343.1219 14.76875 341.91876Q15.925 340.7 17.7375 340.7Q18.940624 340.7 19.89375 341.27814Q20.846874 341.84064 21.346874 342.85626Q21.846874 343.8719 21.846874 345.16876Q21.846874 346.46564 21.315624 347.4969Q20.784374 348.52814 19.815624 349.0594Q18.8625 349.59064 17.7375 349.59064Q16.51875 349.59064 15.565625 349.0125Q14.6125 348.41876 14.1125 347.41876Q13.628125 346.40314 13.628125 345.2625ZM14.8 345.27814Q14.8 346.84064 15.628125 347.73126Q16.471874 348.6219 17.7375 348.6219Q19.01875 348.6219 19.846874 347.73126Q20.675 346.825 20.675 345.15314Q20.675 344.10626 20.315624 343.325Q19.971874 342.54376 19.284374 342.1219Q18.596874 341.6844 17.753124 341.6844Q16.55 341.6844 15.675 342.5125Q14.8 343.34064 14.8 345.27814ZM26.925 349.45L26.925 348.52814Q26.190624 349.59064 24.940624 349.59064Q24.39375 349.59064 23.909374 349.3875Q23.440624 349.16876 23.20625 348.85626Q22.971874 348.52814 22.878124 348.0594Q22.815624 347.7625 22.815624 347.075L22.815624 343.23126L23.878124 343.23126L23.878124 346.6844Q23.878124 347.4969 23.940624 347.79376Q24.034374 348.2 24.346874 348.45Q24.675 348.6844 25.159374 348.6844Q25.628124 348.6844 26.034374 348.45Q26.45625 348.2 26.628124 347.77814Q26.815624 347.35626 26.815624 346.5594L26.815624 343.23126L27.8625 343.23126L27.8625 349.45L26.925 349.45ZM29.83125 349.45L29.83125 343.23126L30.784374 343.23126L30.784374 344.16876Q31.14375 343.5125 31.440624 343.3094Q31.753124 343.09064 32.128124 343.09064Q32.659374 343.09064 33.20625 343.41876L32.846874 344.40314Q32.45625 344.16876 32.08125 344.16876Q31.721874 344.16876 31.440624 344.3875Q31.175 344.59064 31.065624 344.96564Q30.878124 345.52814 30.878124 346.1844L30.878124 349.45L29.83125 349.45ZM36.971874 349.45L36.971874 340.85626L40.221874 340.85626Q41.065624 340.85626 41.51875 340.9344Q42.159374 341.04376 42.58125 341.34064Q43.01875 341.6375 43.26875 342.16876Q43.534374 342.7 43.534374 343.34064Q43.534374 344.4344 42.83125 345.2Q42.14375 345.95 40.315624 345.95L38.1125 345.95L38.1125 349.45L36.971874 349.45ZM38.1125 344.95L40.33125 344.95Q41.440624 344.95 41.89375 344.54376Q42.3625 344.1219 42.3625 343.3719Q42.3625 342.84064 42.08125 342.46564Q41.815624 342.075 41.378124 341.95Q41.08125 341.8719 40.315624 341.8719L38.1125 341.8719L38.1125 344.95ZM44.83125 349.45L44.83125 343.23126L45.784374 343.23126L45.784374 344.16876Q46.14375 343.5125 46.440624 343.3094Q46.753124 343.09064 47.128124 343.09064Q47.659374 343.09064 48.20625 343.41876L47.846874 344.40314Q47.45625 344.16876 47.08125 344.16876Q46.721874 344.16876 46.440624 344.3875Q46.175 344.59064 46.065624 344.96564Q45.878124 345.52814 45.878124 346.1844L45.878124 349.45L44.83125 349.45ZM48.45625 346.34064Q48.45625 344.60626 49.409374 343.77814Q50.20625 343.09064 51.3625 343.09064Q52.64375 343.09064 53.45625 343.9344Q54.284374 344.7625 54.284374 346.2469Q54.284374 347.45 53.925 348.1375Q53.565624 348.825 52.8625 349.21564Q52.175 349.59064 51.3625 349.59064Q50.065624 349.59064 49.253124 348.7625Q48.45625 347.91876 48.45625 346.34064ZM49.534374 346.34064Q49.534374 347.52814 50.05 348.1219Q50.58125 348.71564 51.3625 348.71564Q52.159374 348.71564 52.675 348.1219Q53.190624 347.52814 53.190624 346.3094Q53.190624 345.15314 52.659374 344.5594Q52.14375 343.96564 51.3625 343.96564Q50.58125 343.96564 50.05 344.5594Q49.534374 345.1375 49.534374 346.34064ZM59.878124 349.45L59.878124 348.66876Q59.284374 349.59064 58.14375 349.59064Q57.39375 349.59064 56.76875 349.1844Q56.14375 348.7625 55.8 348.02814Q55.45625 347.29376 55.45625 346.34064Q55.45625 345.41876 55.76875 344.65314Q56.08125 343.8875 56.70625 343.4969Q57.33125 343.09064 58.096874 343.09064Q58.659374 343.09064 59.096874 343.325Q59.534374 343.5594 59.815624 343.9344L59.815624 340.85626L60.8625 340.85626L60.8625 349.45L59.878124 349.45ZM56.55 346.34064Q56.55 347.54376 57.05 348.1375Q57.55 348.71564 58.2375 348.71564Q58.925 348.71564 59.409374 348.15314Q59.89375 347.59064 59.89375 346.4344Q59.89375 345.15314 59.39375 344.5594Q58.909374 343.96564 58.190624 343.96564Q57.4875 343.96564 57.01875 344.54376Q56.55 345.10626 56.55 346.34064ZM66.925 349.45L66.925 348.52814Q66.19063 349.59064 64.94063 349.59064Q64.39375 349.59064 63.909374 349.3875Q63.440624 349.16876 63.20625 348.85626Q62.971874 348.52814 62.878124 348.0594Q62.815624 347.7625 62.815624 347.075L62.815624 343.23126L63.878124 343.23126L63.878124 346.6844Q63.878124 347.4969 63.940624 347.79376Q64.03438 348.2 64.34688 348.45Q64.675 348.6844 65.15938 348.6844Q65.62813 348.6844 66.03438 348.45Q66.45625 348.2 66.62813 347.77814Q66.81563 347.35626 66.81563 346.5594L66.81563 343.23126L67.8625 343.23126L67.8625 349.45L66.925 349.45ZM73.90938 347.16876L74.94063 347.3094Q74.76875 348.3719 74.06563 348.98126Q73.3625 349.59064 72.34688 349.59064Q71.06563 349.59064 70.28438 348.7625Q69.51875 347.91876 69.51875 346.35626Q69.51875 345.35626 69.84688 344.60626Q70.19063 343.84064 70.8625 343.46564Q71.55 343.09064 72.3625 343.09064Q73.3625 343.09064 74.00313 343.60626Q74.65938 344.10626 74.84688 345.0594L73.81563 345.21564Q73.675 344.59064 73.3 344.27814Q72.925 343.95 72.39375 343.95Q71.59688 343.95 71.09688 344.52814Q70.59688 345.09064 70.59688 346.325Q70.59688 347.59064 71.08125 348.15314Q71.56563 348.71564 72.33125 348.71564Q72.95625 348.71564 73.3625 348.34064Q73.78438 347.96564 73.90938 347.16876ZM78.14375 348.5125L78.3 349.4344Q77.84688 349.52814 77.50313 349.52814Q76.925 349.52814 76.6125 349.35626Q76.3 349.16876 76.15938 348.8719Q76.03438 348.575 76.03438 347.6219L76.03438 344.04376L75.26875 344.04376L75.26875 343.23126L76.03438 343.23126L76.03438 341.6844L77.08125 341.0594L77.08125 343.23126L78.14375 343.23126L78.14375 344.04376L77.08125 344.04376L77.08125 347.6844Q77.08125 348.1375 77.12813 348.2625Q77.19063 348.3875 77.31563 348.46564Q77.44063 348.54376 77.675 348.54376Q77.8625 348.54376 78.14375 348.5125Z" fill-rule="nonzero"/><path fill="#000000" d="M203.24583 340.85626L204.38646 340.85626L204.38646 345.825Q204.38646 347.1219 204.08958 347.8875Q203.79271 348.6375 203.02708 349.1219Q202.26146 349.59064 201.02708 349.59064Q199.82396 349.59064 199.04271 349.1844Q198.27708 348.7625 197.94896 347.98126Q197.62083 347.1844 197.62083 345.825L197.62083 340.85626L198.76146 340.85626L198.76146 345.8094Q198.76146 346.9344 198.96458 347.46564Q199.18333 347.9969 199.68333 348.29376Q200.19896 348.575 200.93333 348.575Q202.18333 348.575 202.71458 348.0125Q203.24583 347.4344 203.24583 345.8094L203.24583 340.85626ZM207.44896 349.45L206.46458 349.45L206.46458 340.85626L207.52708 340.85626L207.52708 343.91876Q208.19896 343.09064 209.23021 343.09064Q209.80833 343.09064 210.30833 343.325Q210.82396 343.54376 211.15208 343.96564Q211.49583 344.3875 211.68333 344.98126Q211.87083 345.575 211.87083 346.2469Q211.87083 347.84064 211.07396 348.71564Q210.27708 349.59064 209.18333 349.59064Q208.07396 349.59064 207.44896 348.66876L207.44896 349.45ZM207.43333 346.29376Q207.43333 347.40314 207.74583 347.90314Q208.24583 348.71564 209.08958 348.71564Q209.77708 348.71564 210.27708 348.1219Q210.79271 347.52814 210.79271 346.325Q210.79271 345.10626 210.30833 344.52814Q209.82396 343.95 209.13646 343.95Q208.44896 343.95 207.93333 344.5594Q207.43333 345.15314 207.43333 346.29376ZM217.73021 347.45L218.82396 347.575Q218.57396 348.52814 217.87083 349.0594Q217.16771 349.59064 216.08958 349.59064Q214.73021 349.59064 213.91771 348.7469Q213.12083 347.90314 213.12083 346.3875Q213.12083 344.825 213.93333 343.96564Q214.74583 343.09064 216.02708 343.09064Q217.27708 343.09064 218.05833 343.9344Q218.85521 344.77814 218.85521 346.325Q218.85521 346.41876 218.85521 346.60626L214.21458 346.60626Q214.27708 347.6375 214.79271 348.1844Q215.30833 348.71564 216.08958 348.71564Q216.66771 348.71564 217.07396 348.41876Q217.49583 348.10626 217.73021 347.45ZM214.27708 345.7469L217.74583 345.7469Q217.68333 344.95 217.35521 344.5594Q216.83958 343.95 216.04271 343.95Q215.30833 343.95 214.80833 344.4344Q214.32396 344.91876 214.27708 345.7469ZM220.46458 349.45L220.46458 343.23126L221.41771 343.23126L221.41771 344.16876Q221.77708 343.5125 222.07396 343.3094Q222.38646 343.09064 222.76146 343.09064Q223.29271 343.09064 223.83958 343.41876L223.48021 344.40314Q223.08958 344.16876 222.71458 344.16876Q222.35521 344.16876 222.07396 344.3875Q221.80833 344.59064 221.69896 344.96564Q221.51146 345.52814 221.51146 346.1844L221.51146 349.45L220.46458 349.45ZM227.63646 349.45L227.63646 340.85626L233.83958 340.85626L233.83958 341.8719L228.77708 341.8719L228.77708 344.4969L233.52708 344.4969L233.52708 345.5125L228.77708 345.5125L228.77708 348.4344L234.04271 348.4344L234.04271 349.45L227.63646 349.45ZM239.54271 348.6844Q238.94896 349.1844 238.40208 349.3875Q237.87083 349.59064 237.24583 349.59064Q236.21458 349.59064 235.66771 349.09064Q235.12083 348.59064 235.12083 347.8094Q235.12083 347.35626 235.32396 346.98126Q235.52708 346.59064 235.87083 346.3719Q236.21458 346.1375 236.63646 346.02814Q236.93333 345.9344 237.57396 345.85626Q238.83958 345.71564 239.44896 345.4969Q239.44896 345.27814 239.44896 345.23126Q239.44896 344.575 239.15208 344.3094Q238.74583 343.96564 237.94896 343.96564Q237.21458 343.96564 236.85521 344.23126Q236.49583 344.48126 236.32396 345.1375L235.29271 344.9969Q235.43333 344.34064 235.76146 343.9344Q236.08958 343.52814 236.69896 343.3094Q237.30833 343.09064 238.10521 343.09064Q238.90208 343.09064 239.40208 343.27814Q239.90208 343.46564 240.13646 343.7469Q240.37083 344.02814 240.46458 344.46564Q240.51146 344.73126 240.51146 345.4344L240.51146 346.84064Q240.51146 348.3094 240.57396 348.7Q240.65208 349.09064 240.85521 349.45L239.74583 349.45Q239.58958 349.1219 239.54271 348.6844ZM239.44896 346.325Q238.87083 346.5594 237.73021 346.73126Q237.07396 346.825 236.80833 346.95Q236.54271 347.0594 236.38646 347.27814Q236.24583 347.4969 236.24583 347.77814Q236.24583 348.2 236.55833 348.48126Q236.88646 348.7625 237.49583 348.7625Q238.10521 348.7625 238.57396 348.4969Q239.05833 348.23126 239.27708 347.7625Q239.44896 347.40314 239.44896 346.71564L239.44896 346.325ZM244.77708 348.5125L244.93333 349.4344Q244.48021 349.52814 244.13646 349.52814Q243.55833 349.52814 243.24583 349.35626Q242.93333 349.16876 242.79271 348.8719Q242.66771 348.575 242.66771 347.6219L242.66771 344.04376L241.90208 344.04376L241.90208 343.23126L242.66771 343.23126L242.66771 341.6844L243.71458 341.0594L243.71458 343.23126L244.77708 343.23126L244.77708 344.04376L243.71458 344.04376L243.71458 347.6844Q243.71458 348.1375 243.76146 348.2625Q243.82396 348.3875 243.94896 348.46564Q244.07396 348.54376 244.30833 348.54376Q244.49583 348.54376 244.77708 348.5125ZM245.05833 347.59064L246.08958 347.4344Q246.18333 348.0594 246.57396 348.3875Q246.98021 348.71564 247.71458 348.71564Q248.43333 348.71564 248.77708 348.4344Q249.13646 348.1375 249.13646 347.73126Q249.13646 347.3719 248.82396 347.16876Q248.60521 347.02814 247.74583 346.8094Q246.58958 346.5125 246.13646 346.3094Q245.69896 346.09064 245.46458 345.71564Q245.23021 345.34064 245.23021 344.8719Q245.23021 344.46564 245.41771 344.10626Q245.60521 343.7469 245.93333 343.5125Q246.18333 343.34064 246.60521 343.21564Q247.02708 343.09064 247.52708 343.09064Q248.24583 343.09064 248.79271 343.3094Q249.35521 343.5125 249.62083 343.8719Q249.88646 344.23126 249.98021 344.825L248.94896 344.96564Q248.88646 344.4969 248.54271 344.23126Q248.21458 343.95 247.58958 343.95Q246.87083 343.95 246.55833 344.2Q246.24583 344.4344 246.24583 344.7625Q246.24583 344.96564 246.37083 345.1219Q246.51146 345.29376 246.77708 345.40314Q246.93333 345.46564 247.71458 345.66876Q248.83958 345.98126 249.27708 346.16876Q249.71458 346.35626 249.96458 346.71564Q250.21458 347.075 250.21458 347.6219Q250.21458 348.15314 249.90208 348.6219Q249.60521 349.075 249.02708 349.34064Q248.44896 349.59064 247.71458 349.59064Q246.49583 349.59064 245.85521 349.09064Q245.23021 348.575 245.05833 347.59064Z" fill-rule="nonzero"/><path fill="#000000" d="M373.23856 349.45L373.23856 340.85626L376.2073 340.85626Q377.2073 340.85626 377.73856 340.98126Q378.47293 341.15314 378.98856 341.59064Q379.67606 342.16876 380.00418 343.075Q380.34793 343.96564 380.34793 345.10626Q380.34793 346.09064 380.11356 346.84064Q379.8948 347.59064 379.53543 348.09064Q379.17606 348.59064 378.73856 348.8719Q378.31668 349.15314 377.72293 349.3094Q377.12918 349.45 376.34793 349.45L373.23856 349.45ZM374.37918 348.4344L376.2073 348.4344Q377.06668 348.4344 377.55106 348.27814Q378.03543 348.1219 378.31668 347.825Q378.72293 347.4344 378.94168 346.7469Q379.17606 346.0594 379.17606 345.09064Q379.17606 343.7469 378.72293 343.02814Q378.28543 342.29376 377.66043 342.04376Q377.19168 341.8719 376.19168 341.8719L374.37918 341.8719L374.37918 348.4344ZM386.36356 347.45L387.4573 347.575Q387.2073 348.52814 386.50418 349.0594Q385.80106 349.59064 384.72293 349.59064Q383.36356 349.59064 382.55106 348.7469Q381.75418 347.90314 381.75418 346.3875Q381.75418 344.825 382.56668 343.96564Q383.37918 343.09064 384.66043 343.09064Q385.91043 343.09064 386.69168 343.9344Q387.48856 344.77814 387.48856 346.325Q387.48856 346.41876 387.48856 346.60626L382.84793 346.60626Q382.91043 347.6375 383.42606 348.1844Q383.94168 348.71564 384.72293 348.71564Q385.30106 348.71564 385.7073 348.41876Q386.12918 348.10626 386.36356 347.45ZM382.91043 345.7469L386.37918 345.7469Q386.31668 344.95 385.98856 344.5594Q385.47293 343.95 384.67606 343.95Q383.94168 343.95 383.44168 344.4344Q382.9573 344.91876 382.91043 345.7469ZM389.11356 349.45L389.11356 343.23126L390.05106 343.23126L390.05106 344.10626Q390.34793 343.6375 390.8323 343.3719Q391.31668 343.09064 391.94168 343.09064Q392.62918 343.09064 393.06668 343.3719Q393.5198 343.65314 393.69168 344.16876Q394.44168 343.09064 395.61356 343.09064Q396.55106 343.09064 397.03543 343.60626Q397.53543 344.10626 397.53543 345.1844L397.53543 349.45L396.48856 349.45L396.48856 345.52814Q396.48856 344.90314 396.37918 344.6219Q396.28543 344.34064 396.0198 344.16876Q395.75418 343.9969 395.37918 343.9969Q394.72293 343.9969 394.28543 344.4344Q393.86356 344.8719 393.86356 345.84064L393.86356 349.45L392.80106 349.45L392.80106 345.40314Q392.80106 344.7 392.53543 344.35626Q392.28543 343.9969 391.7073 343.9969Q391.25418 343.9969 390.87918 344.23126Q390.50418 344.46564 390.3323 344.91876Q390.16043 345.3719 390.16043 346.21564L390.16043 349.45L389.11356 349.45ZM404.17606 348.6844Q403.5823 349.1844 403.03543 349.3875Q402.50418 349.59064 401.87918 349.59064Q400.84793 349.59064 400.30106 349.09064Q399.75418 348.59064 399.75418 347.8094Q399.75418 347.35626 399.9573 346.98126Q400.16043 346.59064 400.50418 346.3719Q400.84793 346.1375 401.2698 346.02814Q401.56668 345.9344 402.2073 345.85626Q403.47293 345.71564 404.0823 345.4969Q404.0823 345.27814 404.0823 345.23126Q404.0823 344.575 403.78543 344.3094Q403.37918 343.96564 402.5823 343.96564Q401.84793 343.96564 401.48856 344.23126Q401.12918 344.48126 400.9573 345.1375L399.92606 344.9969Q400.06668 344.34064 400.3948 343.9344Q400.72293 343.52814 401.3323 343.3094Q401.94168 343.09064 402.73856 343.09064Q403.53543 343.09064 404.03543 343.27814Q404.53543 343.46564 404.7698 343.7469Q405.00418 344.02814 405.09793 344.46564Q405.1448 344.73126 405.1448 345.4344L405.1448 346.84064Q405.1448 348.3094 405.2073 348.7Q405.28543 349.09064 405.48856 349.45L404.37918 349.45Q404.22293 349.1219 404.17606 348.6844ZM404.0823 346.325Q403.50418 346.5594 402.36356 346.73126Q401.7073 346.825 401.44168 346.95Q401.17606 347.0594 401.0198 347.27814Q400.87918 347.4969 400.87918 347.77814Q400.87918 348.2 401.19168 348.48126Q401.5198 348.7625 402.12918 348.7625Q402.73856 348.7625 403.2073 348.4969Q403.69168 348.23126 403.91043 347.7625Q404.0823 347.40314 404.0823 346.71564L404.0823 346.325ZM411.36356 347.45L412.4573 347.575Q412.2073 348.52814 411.50418 349.0594Q410.80106 349.59064 409.72293 349.59064Q408.36356 349.59064 407.55106 348.7469Q406.75418 347.90314 406.75418 346.3875Q406.75418 344.825 407.56668 343.96564Q408.37918 343.09064 409.66043 343.09064Q410.91043 343.09064 411.69168 343.9344Q412.48856 344.77814 412.48856 346.325Q412.48856 346.41876 412.48856 346.60626L407.84793 346.60626Q407.91043 347.6375 408.42606 348.1844Q408.94168 348.71564 409.72293 348.71564Q410.30106 348.71564 410.7073 348.41876Q411.12918 348.10626 411.36356 347.45ZM407.91043 345.7469L411.37918 345.7469Q411.31668 344.95 410.98856 344.5594Q410.47293 343.95 409.67606 343.95Q408.94168 343.95 408.44168 344.4344Q407.9573 344.91876 407.91043 345.7469ZM418.17606 347.16876L419.2073 347.3094Q419.03543 348.3719 418.3323 348.98126Q417.62918 349.59064 416.61356 349.59064Q415.3323 349.59064 414.55106 348.7625Q413.78543 347.91876 413.78543 346.35626Q413.78543 345.35626 414.11356 344.60626Q414.4573 343.84064 415.12918 343.46564Q415.81668 343.09064 416.62918 343.09064Q417.62918 343.09064 418.2698 343.60626Q418.92606 344.10626 419.11356 345.0594L418.0823 345.21564Q417.94168 344.59064 417.56668 344.27814Q417.19168 343.95 416.66043 343.95Q415.86356 343.95 415.36356 344.52814Q414.86356 345.09064 414.86356 346.325Q414.86356 347.59064 415.34793 348.15314Q415.8323 348.71564 416.59793 348.71564Q417.22293 348.71564 417.62918 348.34064Q418.05106 347.96564 418.17606 347.16876ZM424.17606 348.6844Q423.5823 349.1844 423.03543 349.3875Q422.50418 349.59064 421.87918 349.59064Q420.84793 349.59064 420.30106 349.09064Q419.75418 348.59064 419.75418 347.8094Q419.75418 347.35626 419.9573 346.98126Q420.16043 346.59064 420.50418 346.3719Q420.84793 346.1375 421.2698 346.02814Q421.56668 345.9344 422.2073 345.85626Q423.47293 345.71564 424.0823 345.4969Q424.0823 345.27814 424.0823 345.23126Q424.0823 344.575 423.78543 344.3094Q423.37918 343.96564 422.5823 343.96564Q421.84793 343.96564 421.48856 344.23126Q421.12918 344.48126 420.9573 345.1375L419.92606 344.9969Q420.06668 344.34064 420.3948 343.9344Q420.72293 343.52814 421.3323 343.3094Q421.94168 343.09064 422.73856 343.09064Q423.53543 343.09064 424.03543 343.27814Q424.53543 343.46564 424.7698 343.7469Q425.00418 344.02814 425.09793 344.46564Q425.1448 344.73126 425.1448 345.4344L425.1448 346.84064Q425.1448 348.3094 425.2073 348.7Q425.28543 349.09064 425.48856 349.45L424.37918 349.45Q424.22293 349.1219 424.17606 348.6844ZM424.0823 346.325Q423.50418 346.5594 422.36356 346.73126Q421.7073 346.825 421.44168 346.95Q421.17606 347.0594 421.0198 347.27814Q420.87918 347.4969 420.87918 347.77814Q420.87918 348.2 421.19168 348.48126Q421.5198 348.7625 422.12918 348.7625Q422.73856 348.7625 423.2073 348.4969Q423.69168 348.23126 423.91043 347.7625Q424.0823 347.40314 424.0823 346.71564L424.0823 346.325ZM427.11356 349.45L427.11356 343.23126L428.05106 343.23126L428.05106 344.10626Q428.73856 343.09064 430.03543 343.09064Q430.59793 343.09064 431.06668 343.29376Q431.55106 343.4969 431.78543 343.825Q432.0198 344.15314 432.11356 344.59064Q432.16043 344.8875 432.16043 345.6219L432.16043 349.45L431.11356 349.45L431.11356 345.66876Q431.11356 345.0125 430.98856 344.7Q430.86356 344.3875 430.55106 344.2Q430.23856 343.9969 429.81668 343.9969Q429.1448 343.9969 428.6448 344.4344Q428.16043 344.85626 428.16043 346.04376L428.16043 349.45L427.11356 349.45Z" fill-rule="nonzero"/><path fill="#000000" d="M571.8719 349.45L569.59064 340.85626L570.7625 340.85626L572.075 346.4969Q572.27814 347.3719 572.4344 348.2469Q572.7625 346.8719 572.825 346.65314L574.45 340.85626L575.825 340.85626L577.0594 345.2Q577.5125 346.825 577.73126 348.2469Q577.8875 347.4344 578.15314 346.3719L579.4969 340.85626L580.6375 340.85626L578.29376 349.45L577.1844 349.45L575.3875 342.90314Q575.15314 342.09064 575.10626 341.90314Q574.98126 342.48126 574.85626 342.90314L573.04376 349.45L571.8719 349.45ZM580.85626 346.34064Q580.85626 344.60626 581.8094 343.77814Q582.60626 343.09064 583.7625 343.09064Q585.04376 343.09064 585.85626 343.9344Q586.6844 344.7625 586.6844 346.2469Q586.6844 347.45 586.325 348.1375Q585.96564 348.825 585.2625 349.21564Q584.575 349.59064 583.7625 349.59064Q582.46564 349.59064 581.65314 348.7625Q580.85626 347.91876 580.85626 346.34064ZM581.9344 346.34064Q581.9344 347.52814 582.45 348.1219Q582.98126 348.71564 583.7625 348.71564Q584.5594 348.71564 585.075 348.1219Q585.59064 347.52814 585.59064 346.3094Q585.59064 345.15314 585.0594 344.5594Q584.54376 343.96564 583.7625 343.96564Q582.98126 343.96564 582.45 344.5594Q581.9344 345.1375 581.9344 346.34064ZM588.21564 349.45L588.21564 340.85626L589.27814 340.85626L589.27814 349.45L588.21564 349.45ZM593.54376 348.5125L593.7 349.4344Q593.2469 349.52814 592.90314 349.52814Q592.325 349.52814 592.0125 349.35626Q591.7 349.16876 591.5594 348.8719Q591.4344 348.575 591.4344 347.6219L591.4344 344.04376L590.66876 344.04376L590.66876 343.23126L591.4344 343.23126L591.4344 341.6844L592.48126 341.0594L592.48126 343.23126L593.54376 343.23126L593.54376 344.04376L592.48126 344.04376L592.48126 347.6844Q592.48126 348.1375 592.52814 348.2625Q592.59064 348.3875 592.71564 348.46564Q592.84064 348.54376 593.075 348.54376Q593.2625 348.54376 593.54376 348.5125Z" fill-rule="nonzero"/><path fill="#34a853" d="M109.5 20.55C109.5 19.997715 109.947716 19.55 110.5 19.55L120.5 19.55C121.052284 19.55 121.5 19.997715 121.5 20.55L121.5 30.55C121.5 31.102285 121.052284 31.55 120.5 31.55L110.5 31.55C109.947716 31.55 109.5 31.102285 109.5 30.55Z" fill-rule="nonzero"/><path fill="#1a1a1a" d="M130.4375 29.55L130.4375 20.95625L134.25 20.95625Q135.40625 20.95625 136.0 21.190624Q136.59375 21.425 136.95312 22.01875Q137.3125 22.596874 137.3125 23.3Q137.3125 24.221874 136.71875 24.846874Q136.125 25.471874 134.89062 25.64375Q135.34375 25.8625 135.57812 26.065624Q136.07812 26.51875 136.51562 27.20625L138.01562 29.55L136.57812 29.55L135.45312 27.76875Q134.95312 26.9875 134.625 26.58125Q134.3125 26.175 134.04688 26.01875Q133.79688 25.846874 133.53125 25.76875Q133.34375 25.7375 132.90625 25.7375L131.57812 25.7375L131.57812 29.55L130.4375 29.55ZM131.57812 24.753124L134.03125 24.753124Q134.79688 24.753124 135.23438 24.596874Q135.6875 24.425 135.90625 24.08125Q136.14062 23.721874 136.14062 23.3Q136.14062 22.690624 135.6875 22.3Q135.25 21.909374 134.29688 21.909374L131.57812 21.909374L131.57812 24.753124ZM143.54688 27.55L144.64062 27.675Q144.39062 28.628124 143.6875 29.159374Q142.98438 29.690624 141.90625 29.690624Q140.54688 29.690624 139.73438 28.846874Q138.9375 28.003124 138.9375 26.4875Q138.9375 24.925 139.75 24.065624Q140.5625 23.190624 141.84375 23.190624Q143.09375 23.190624 143.875 24.034374Q144.67188 24.878124 144.67188 26.425Q144.67188 26.51875 144.67188 26.70625L140.03125 26.70625Q140.09375 27.7375 140.60938 28.284374Q141.125 28.815624 141.90625 28.815624Q142.48438 28.815624 142.89062 28.51875Q143.3125 28.20625 143.54688 27.55ZM140.09375 25.846874L143.5625 25.846874Q143.5 25.05 143.17188 24.659374Q142.65625 24.05 141.85938 24.05Q141.125 24.05 140.625 24.534374Q140.14062 25.01875 140.09375 25.846874ZM145.875 27.690624L146.90625 27.534374Q147.0 28.159374 147.39062 28.4875Q147.79688 28.815624 148.53125 28.815624Q149.25 28.815624 149.59375 28.534374Q149.95312 28.2375 149.95312 27.83125Q149.95312 27.471874 149.64062 27.26875Q149.42188 27.128124 148.5625 26.909374Q147.40625 26.6125 146.95312 26.409374Q146.51562 26.190624 146.28125 25.815624Q146.04688 25.440624 146.04688 24.971874Q146.04688 24.565624 146.23438 24.20625Q146.42188 23.846874 146.75 23.6125Q147.0 23.440624 147.42188 23.315624Q147.84375 23.190624 148.34375 23.190624Q149.0625 23.190624 149.60938 23.409374Q150.17188 23.6125 150.4375 23.971874Q150.70312 24.33125 150.79688 24.925L149.76562 25.065624Q149.70312 24.596874 149.35938 24.33125Q149.03125 24.05 148.40625 24.05Q147.6875 24.05 147.375 24.3Q147.0625 24.534374 147.0625 24.8625Q147.0625 25.065624 147.1875 25.221874Q147.32812 25.39375 147.59375 25.503124Q147.75 25.565624 148.53125 25.76875Q149.65625 26.08125 150.09375 26.26875Q150.53125 26.45625 150.78125 26.815624Q151.03125 27.175 151.03125 27.721874Q151.03125 28.253124 150.71875 28.721874Q150.42188 29.175 149.84375 29.440624Q149.26562 29.690624 148.53125 29.690624Q147.3125 29.690624 146.67188 29.190624Q146.04688 28.675 145.875 27.690624ZM155.59375 28.6125L155.75 29.534374Q155.29688 29.628124 154.95312 29.628124Q154.375 29.628124 154.0625 29.45625Q153.75 29.26875 153.60938 28.971874Q153.48438 28.675 153.48438 27.721874L153.48438 24.14375L152.71875 24.14375L152.71875 23.33125L153.48438 23.33125L153.48438 21.784374L154.53125 21.159374L154.53125 23.33125L155.59375 23.33125L155.59375 24.14375L154.53125 24.14375L154.53125 27.784374Q154.53125 28.2375 154.57812 28.3625Q154.64062 28.4875 154.76562 28.565624Q154.89062 28.64375 155.125 28.64375Q155.3125 28.64375 155.59375 28.6125ZM160.35938 28.784374Q159.76562 29.284374 159.21875 29.4875Q158.6875 29.690624 158.0625 29.690624Q157.03125 29.690624 156.48438 29.190624Q155.9375 28.690624 155.9375 27.909374Q155.9375 27.45625 156.14062 27.08125Q156.34375 26.690624 156.6875 26.471874Q157.03125 26.2375 157.45312 26.128124Q157.75 26.034374 158.39062 25.95625Q159.65625 25.815624 160.26562 25.596874Q160.26562 25.378124 160.26562 25.33125Q160.26562 24.675 159.96875 24.409374Q159.5625 24.065624 158.76562 24.065624Q158.03125 24.065624 157.67188 24.33125Q157.3125 24.58125 157.14062 25.2375L156.10938 25.096874Q156.25 24.440624 156.57812 24.034374Q156.90625 23.628124 157.51562 23.409374Q158.125 23.190624 158.92188 23.190624Q159.71875 23.190624 160.21875 23.378124Q160.71875 23.565624 160.95312 23.846874Q161.1875 24.128124 161.28125 24.565624Q161.32812 24.83125 161.32812 25.534374L161.32812 26.940624Q161.32812 28.409374 161.39062 28.8Q161.46875 29.190624 161.67188 29.55L160.5625 29.55Q160.40625 29.221874 160.35938 28.784374ZM160.26562 26.425Q159.6875 26.659374 158.54688 26.83125Q157.89062 26.925 157.625 27.05Q157.35938 27.159374 157.20312 27.378124Q157.0625 27.596874 157.0625 27.878124Q157.0625 28.3 157.375 28.58125Q157.70312 28.8625 158.3125 28.8625Q158.92188 28.8625 159.39062 28.596874Q159.875 28.33125 160.09375 27.8625Q160.26562 27.503124 160.26562 26.815624L160.26562 26.425ZM167.375 29.55L167.375 28.628124Q166.64062 29.690624 165.39062 29.690624Q164.84375 29.690624 164.35938 29.4875Q163.89062 29.26875 163.65625 28.95625Q163.42188 28.628124 163.32812 28.159374Q163.26562 27.8625 163.26562 27.175L163.26562 23.33125L164.32812 23.33125L164.32812 26.784374Q164.32812 27.596874 164.39062 27.89375Q164.48438 28.3 164.79688 28.55Q165.125 28.784374 165.60938 28.784374Q166.07812 28.784374 166.48438 28.55Q166.90625 28.3 167.07812 27.878124Q167.26562 27.45625 167.26562 26.659374L167.26562 23.33125L168.3125 23.33125L168.3125 29.55L167.375 29.55ZM170.28125 29.55L170.28125 23.33125L171.23438 23.33125L171.23438 24.26875Q171.59375 23.6125 171.89062 23.409374Q172.20312 23.190624 172.57812 23.190624Q173.10938 23.190624 173.65625 23.51875L173.29688 24.503124Q172.90625 24.26875 172.53125 24.26875Q172.17188 24.26875 171.89062 24.4875Q171.625 24.690624 171.51562 25.065624Q171.32812 25.628124 171.32812 26.284374L171.32812 29.55L170.28125 29.55ZM178.35938 28.784374Q177.76562 29.284374 177.21875 29.4875Q176.6875 29.690624 176.0625 29.690624Q175.03125 29.690624 174.48438 29.190624Q173.9375 28.690624 173.9375 27.909374Q173.9375 27.45625 174.14062 27.08125Q174.34375 26.690624 174.6875 26.471874Q175.03125 26.2375 175.45312 26.128124Q175.75 26.034374 176.39062 25.95625Q177.65625 25.815624 178.26562 25.596874Q178.26562 25.378124 178.26562 25.33125Q178.26562 24.675 177.96875 24.409374Q177.5625 24.065624 176.76562 24.065624Q176.03125 24.065624 175.67188 24.33125Q175.3125 24.58125 175.14062 25.2375L174.10938 25.096874Q174.25 24.440624 174.57812 24.034374Q174.90625 23.628124 175.51562 23.409374Q176.125 23.190624 176.92188 23.190624Q177.71875 23.190624 178.21875 23.378124Q178.71875 23.565624 178.95312 23.846874Q179.1875 24.128124 179.28125 24.565624Q179.32812 24.83125 179.32812 25.534374L179.32812 26.940624Q179.32812 28.409374 179.39062 28.8Q179.46875 29.190624 179.67188 29.55L178.5625 29.55Q178.40625 29.221874 178.35938 28.784374ZM178.26562 26.425Q177.6875 26.659374 176.54688 26.83125Q175.89062 26.925 175.625 27.05Q175.35938 27.159374 175.20312 27.378124Q175.0625 27.596874 175.0625 27.878124Q175.0625 28.3 175.375 28.58125Q175.70312 28.8625 176.3125 28.8625Q176.92188 28.8625 177.39062 28.596874Q177.875 28.33125 178.09375 27.8625Q178.26562 27.503124 178.26562 26.815624L178.26562 26.425ZM181.29688 29.55L181.29688 23.33125L182.23438 23.33125L182.23438 24.20625Q182.92188 23.190624 184.21875 23.190624Q184.78125 23.190624 185.25 23.39375Q185.73438 23.596874 185.96875 23.925Q186.20312 24.253124 186.29688 24.690624Q186.34375 24.9875 186.34375 25.721874L186.34375 29.55L185.29688 29.55L185.29688 25.76875Q185.29688 25.1125 185.17188 24.8Q185.04688 24.4875 184.73438 24.3Q184.42188 24.096874 184.0 24.096874Q183.32812 24.096874 182.82812 24.534374Q182.34375 24.95625 182.34375 26.14375L182.34375 29.55L181.29688 29.55ZM190.59375 28.6125L190.75 29.534374Q190.29688 29.628124 189.95312 29.628124Q189.375 29.628124 189.0625 29.45625Q188.75 29.26875 188.60938 28.971874Q188.48438 28.675 188.48438 27.721874L188.48438 24.14375L187.71875 24.14375L187.71875 23.33125L188.48438 23.33125L188.48438 21.784374L189.53125 21.159374L189.53125 23.33125L190.59375 23.33125L190.59375 24.14375L189.53125 24.14375L189.53125 27.784374Q189.53125 28.2375 189.57812 28.3625Q189.64062 28.4875 189.76562 28.565624Q189.89062 28.64375 190.125 28.64375Q190.3125 28.64375 190.59375 28.6125ZM194.4375 29.55L194.4375 20.95625L198.25 20.95625Q199.40625 20.95625 200.0 21.190624Q200.59375 21.425 200.95312 22.01875Q201.3125 22.596874 201.3125 23.3Q201.3125 24.221874 200.71875 24.846874Q200.125 25.471874 198.89062 25.64375Q199.34375 25.8625 199.57812 26.065624Q200.07812 26.51875 200.51562 27.20625L202.01562 29.55L200.57812 29.55L199.45312 27.76875Q198.95312 26.9875 198.625 26.58125Q198.3125 26.175 198.04688 26.01875Q197.79688 25.846874 197.53125 25.76875Q197.34375 25.7375 196.90625 25.7375L195.57812 25.7375L195.57812 29.55L194.4375 29.55ZM195.57812 24.753124L198.03125 24.753124Q198.79688 24.753124 199.23438 24.596874Q199.6875 24.425 199.90625 24.08125Q200.14062 23.721874 200.14062 23.3Q200.14062 22.690624 199.6875 22.3Q199.25 21.909374 198.29688 21.909374L195.57812 21.909374L195.57812 24.753124ZM207.54688 27.55L208.64062 27.675Q208.39062 28.628124 207.6875 29.159374Q206.98438 29.690624 205.90625 29.690624Q204.54688 29.690624 203.73438 28.846874Q202.9375 28.003124 202.9375 26.4875Q202.9375 24.925 203.75 24.065624Q204.5625 23.190624 205.84375 23.190624Q207.09375 23.190624 207.875 24.034374Q208.67188 24.878124 208.67188 26.425Q208.67188 26.51875 208.67188 26.70625L204.03125 26.70625Q204.09375 27.7375 204.60938 28.284374Q205.125 28.815624 205.90625 28.815624Q206.48438 28.815624 206.89062 28.51875Q207.3125 28.20625 207.54688 27.55ZM204.09375 25.846874L207.5625 25.846874Q207.5 25.05 207.17188 24.659374Q206.65625 24.05 205.85938 24.05Q205.125 24.05 204.625 24.534374Q204.14062 25.01875 204.09375 25.846874ZM212.01562 29.55L209.65625 23.33125L210.76562 23.33125L212.10938 27.05Q212.3125 27.659374 212.5 28.3Q212.64062 27.815624 212.89062 27.128124L214.28125 23.33125L215.35938 23.33125L213.0 29.55L212.01562 29.55ZM219.54688 27.55L220.64062 27.675Q220.39062 28.628124 219.6875 29.159374Q218.98438 29.690624 217.90625 29.690624Q216.54688 29.690624 215.73438 28.846874Q214.9375 28.003124 214.9375 26.4875Q214.9375 24.925 215.75 24.065624Q216.5625 23.190624 217.84375 23.190624Q219.09375 23.190624 219.875 24.034374Q220.67188 24.878124 220.67188 26.425Q220.67188 26.51875 220.67188 26.70625L216.03125 26.70625Q216.09375 27.7375 216.60938 28.284374Q217.125 28.815624 217.90625 28.815624Q218.48438 28.815624 218.89062 28.51875Q219.3125 28.20625 219.54688 27.55ZM216.09375 25.846874L219.5625 25.846874Q219.5 25.05 219.17188 24.659374Q218.65625 24.05 217.85938 24.05Q217.125 24.05 216.625 24.534374Q216.14062 25.01875 216.09375 25.846874ZM222.29688 29.55L222.29688 23.33125L223.23438 23.33125L223.23438 24.20625Q223.92188 23.190624 225.21875 23.190624Q225.78125 23.190624 226.25 23.39375Q226.73438 23.596874 226.96875 23.925Q227.20312 24.253124 227.29688 24.690624Q227.34375 24.9875 227.34375 25.721874L227.34375 29.55L226.29688 29.55L226.29688 25.76875Q226.29688 25.1125 226.17188 24.8Q226.04688 24.4875 225.73438 24.3Q225.42188 24.096874 225.0 24.096874Q224.32812 24.096874 223.82812 24.534374Q223.34375 24.95625 223.34375 26.14375L223.34375 29.55L222.29688 29.55ZM233.375 29.55L233.375 28.628124Q232.64062 29.690624 231.39062 29.690624Q230.84375 29.690624 230.35938 29.4875Q229.89062 29.26875 229.65625 28.95625Q229.42188 28.628124 229.32812 28.159374Q229.26562 27.8625 229.26562 27.175L229.26562 23.33125L230.32812 23.33125L230.32812 26.784374Q230.32812 27.596874 230.39062 27.89375Q230.48438 28.3 230.79688 28.55Q231.125 28.784374 231.60938 28.784374Q232.07812 28.784374 232.48438 28.55Q232.90625 28.3 233.07812 27.878124Q233.26562 27.45625 233.26562 26.659374L233.26562 23.33125L234.3125 23.33125L234.3125 29.55L233.375 29.55ZM240.54688 27.55L241.64062 27.675Q241.39062 28.628124 240.6875 29.159374Q239.98438 29.690624 238.90625 29.690624Q237.54688 29.690624 236.73438 28.846874Q235.9375 28.003124 235.9375 26.4875Q235.9375 24.925 236.75 24.065624Q237.5625 23.190624 238.84375 23.190624Q240.09375 23.190624 240.875 24.034374Q241.67188 24.878124 241.67188 26.425Q241.67188 26.51875 241.67188 26.70625L237.03125 26.70625Q237.09375 27.7375 237.60938 28.284374Q238.125 28.815624 238.90625 28.815624Q239.48438 28.815624 239.89062 28.51875Q240.3125 28.20625 240.54688 27.55ZM237.09375 25.846874L240.5625 25.846874Q240.5 25.05 240.17188 24.659374Q239.65625 24.05 238.85938 24.05Q238.125 24.05 237.625 24.534374Q237.14062 25.01875 237.09375 25.846874ZM246.4375 29.55L246.4375 20.95625L250.25 20.95625Q251.40625 20.95625 252.0 21.190624Q252.59375 21.425 252.95312 22.01875Q253.3125 22.596874 253.3125 23.3Q253.3125 24.221874 252.71875 24.846874Q252.125 25.471874 250.89062 25.64375Q251.34375 25.8625 251.57812 26.065624Q252.07812 26.51875 252.51562 27.20625L254.01562 29.55L252.57812 29.55L251.45312 27.76875Q250.95312 26.9875 250.625 26.58125Q250.3125 26.175 250.04688 26.01875Q249.79688 25.846874 249.53125 25.76875Q249.34375 25.7375 248.90625 25.7375L247.57812 25.7375L247.57812 29.55L246.4375 29.55ZM247.57812 24.753124L250.03125 24.753124Q250.79688 24.753124 251.23438 24.596874Q251.6875 24.425 251.90625 24.08125Q252.14062 23.721874 252.14062 23.3Q252.14062 22.690624 251.6875 22.3Q251.25 21.909374 250.29688 21.909374L247.57812 21.909374L247.57812 24.753124ZM259.54688 27.55L260.64062 27.675Q260.39062 28.628124 259.6875 29.159374Q258.98438 29.690624 257.90625 29.690624Q256.54688 29.690624 255.73438 28.846874Q254.9375 28.003124 254.9375 26.4875Q254.9375 24.925 255.75 24.065624Q256.5625 23.190624 257.84375 23.190624Q259.09375 23.190624 259.875 24.034374Q260.67188 24.878124 260.67188 26.425Q260.67188 26.51875 260.67188 26.70625L256.03125 26.70625Q256.09375 27.7375 256.60938 28.284374Q257.125 28.815624 257.90625 28.815624Q258.48438 28.815624 258.89062 28.51875Q259.3125 28.20625 259.54688 27.55ZM256.09375 25.846874L259.5625 25.846874Q259.5 25.05 259.17188 24.659374Q258.65625 24.05 257.85938 24.05Q257.125 24.05 256.625 24.534374Q256.14062 25.01875 256.09375 25.846874ZM264.59375 28.6125L264.75 29.534374Q264.29688 29.628124 263.95312 29.628124Q263.375 29.628124 263.0625 29.45625Q262.75 29.26875 262.60938 28.971874Q262.48438 28.675 262.48438 27.721874L262.48438 24.14375L261.71875 24.14375L261.71875 23.33125L262.48438 23.33125L262.48438 21.784374L263.53125 21.159374L263.53125 23.33125L264.59375 23.33125L264.59375 24.14375L263.53125 24.14375L263.53125 27.784374Q263.53125 28.2375 263.57812 28.3625Q263.64062 28.4875 263.76562 28.565624Q263.89062 28.64375 264.125 28.64375Q264.3125 28.64375 264.59375 28.6125ZM269.35938 28.784374Q268.76562 29.284374 268.21875 29.4875Q267.6875 29.690624 267.0625 29.690624Q266.03125 29.690624 265.48438 29.190624Q264.9375 28.690624 264.9375 27.909374Q264.9375 27.45625 265.14062 27.08125Q265.34375 26.690624 265.6875 26.471874Q266.03125 26.2375 266.45312 26.128124Q266.75 26.034374 267.39062 25.95625Q268.65625 25.815624 269.26562 25.596874Q269.26562 25.378124 269.26562 25.33125Q269.26562 24.675 268.96875 24.409374Q268.5625 24.065624 267.76562 24.065624Q267.03125 24.065624 266.67188 24.33125Q266.3125 24.58125 266.14062 25.2375L265.10938 25.096874Q265.25 24.440624 265.57812 24.034374Q265.90625 23.628124 266.51562 23.409374Q267.125 23.190624 267.92188 23.190624Q268.71875 23.190624 269.21875 23.378124Q269.71875 23.565624 269.95312 23.846874Q270.1875 24.128124 270.28125 24.565624Q270.32812 24.83125 270.32812 25.534374L270.32812 26.940624Q270.32812 28.409374 270.39062 28.8Q270.46875 29.190624 270.67188 29.55L269.5625 29.55Q269.40625 29.221874 269.35938 28.784374ZM269.26562 26.425Q268.6875 26.659374 267.54688 26.83125Q266.89062 26.925 266.625 27.05Q266.35938 27.159374 266.20312 27.378124Q266.0625 27.596874 266.0625 27.878124Q266.0625 28.3 266.375 28.58125Q266.70312 28.8625 267.3125 28.8625Q267.92188 28.8625 268.39062 28.596874Q268.875 28.33125 269.09375 27.8625Q269.26562 27.503124 269.26562 26.815624L269.26562 26.425ZM272.29688 22.175L272.29688 20.95625L273.35938 20.95625L273.35938 22.175L272.29688 22.175ZM272.29688 29.55L272.29688 23.33125L273.35938 23.33125L273.35938 29.55L272.29688 29.55ZM275.29688 29.55L275.29688 23.33125L276.23438 23.33125L276.23438 24.20625Q276.92188 23.190624 278.21875 23.190624Q278.78125 23.190624 279.25 23.39375Q279.73438 23.596874 279.96875 23.925Q280.20312 24.253124 280.29688 24.690624Q280.34375 24.9875 280.34375 25.721874L280.34375 29.55L279.29688 29.55L279.29688 25.76875Q279.29688 25.1125 279.17188 24.8Q279.04688 24.4875 278.73438 24.3Q278.42188 24.096874 278.0 24.096874Q277.32812 24.096874 276.82812 24.534374Q276.34375 24.95625 276.34375 26.14375L276.34375 29.55L275.29688 29.55ZM286.54688 27.55L287.64062 27.675Q287.39062 28.628124 286.6875 29.159374Q285.98438 29.690624 284.90625 29.690624Q283.54688 29.690624 282.73438 28.846874Q281.9375 28.003124 281.9375 26.4875Q281.9375 24.925 282.75 24.065624Q283.5625 23.190624 284.84375 23.190624Q286.09375 23.190624 286.875 24.034374Q287.67188 24.878124 287.67188 26.425Q287.67188 26.51875 287.67188 26.70625L283.03125 26.70625Q283.09375 27.7375 283.60938 28.284374Q284.125 28.815624 284.90625 28.815624Q285.48438 28.815624 285.89062 28.51875Q286.3125 28.20625 286.54688 27.55ZM283.09375 25.846874L286.5625 25.846874Q286.5 25.05 286.17188 24.659374Q285.65625 24.05 284.85938 24.05Q284.125 24.05 283.625 24.534374Q283.14062 25.01875 283.09375 25.846874ZM293.32812 29.55L293.32812 28.76875Q292.73438 29.690624 291.59375 29.690624Q290.84375 29.690624 290.21875 29.284374Q289.59375 28.8625 289.25 28.128124Q288.90625 27.39375 288.90625 26.440624Q288.90625 25.51875 289.21875 24.753124Q289.53125 23.9875 290.15625 23.596874Q290.78125 23.190624 291.54688 23.190624Q292.10938 23.190624 292.54688 23.425Q292.98438 23.659374 293.26562 24.034374L293.26562 20.95625L294.3125 20.95625L294.3125 29.55L293.32812 29.55ZM290.0 26.440624Q290.0 27.64375 290.5 28.2375Q291.0 28.815624 291.6875 28.815624Q292.375 28.815624 292.85938 28.253124Q293.34375 27.690624 293.34375 26.534374Q293.34375 25.253124 292.84375 24.659374Q292.35938 24.065624 291.64062 24.065624Q290.9375 24.065624 290.46875 24.64375Q290.0 25.20625 290.0 26.440624Z" fill-rule="nonzero"/><path fill="#0000ff" d="M314.5 20.55C314.5 19.997715 314.94772 19.55 315.5 19.55L325.5 19.55C326.05228 19.55 326.5 19.997715 326.5 20.55L326.5 30.55C326.5 31.102285 326.05228 31.55 325.5 31.55L315.5 31.55C314.94772 31.55 314.5 31.102285 314.5 30.55Z" fill-rule="nonzero"/><path fill="#1a1a1a" d="M341.5625 26.534374L342.6875 26.83125Q342.32812 28.221874 341.40625 28.95625Q340.48438 29.690624 339.14062 29.690624Q337.75 29.690624 336.875 29.128124Q336.0 28.565624 335.54688 27.503124Q335.09375 26.425 335.09375 25.190624Q335.09375 23.846874 335.60938 22.846874Q336.125 21.846874 337.0625 21.33125Q338.01562 20.815624 339.15625 20.815624Q340.4375 20.815624 341.3125 21.471874Q342.20312 22.128124 342.54688 23.315624L341.42188 23.58125Q341.125 22.64375 340.54688 22.221874Q339.98438 21.784374 339.125 21.784374Q338.14062 21.784374 337.46875 22.26875Q336.8125 22.7375 336.53125 23.534374Q336.26562 24.33125 336.26562 25.190624Q336.26562 26.284374 336.57812 27.096874Q336.90625 27.909374 337.57812 28.315624Q338.25 28.721874 339.04688 28.721874Q340.0 28.721874 340.65625 28.175Q341.32812 27.628124 341.5625 26.534374ZM348.375 29.55L348.375 28.628124Q347.64062 29.690624 346.39062 29.690624Q345.84375 29.690624 345.35938 29.4875Q344.89062 29.26875 344.65625 28.95625Q344.42188 28.628124 344.32812 28.159374Q344.26562 27.8625 344.26562 27.175L344.26562 23.33125L345.32812 23.33125L345.32812 26.784374Q345.32812 27.596874 345.39062 27.89375Q345.48438 28.3 345.79688 28.55Q346.125 28.784374 346.60938 28.784374Q347.07812 28.784374 347.48438 28.55Q347.90625 28.3 348.07812 27.878124Q348.26562 27.45625 348.26562 26.659374L348.26562 23.33125L349.3125 23.33125L349.3125 29.55L348.375 29.55ZM350.875 27.690624L351.90625 27.534374Q352.0 28.159374 352.39062 28.4875Q352.79688 28.815624 353.53125 28.815624Q354.25 28.815624 354.59375 28.534374Q354.95312 28.2375 354.95312 27.83125Q354.95312 27.471874 354.64062 27.26875Q354.42188 27.128124 353.5625 26.909374Q352.40625 26.6125 351.95312 26.409374Q351.51562 26.190624 351.28125 25.815624Q351.04688 25.440624 351.04688 24.971874Q351.04688 24.565624 351.23438 24.20625Q351.42188 23.846874 351.75 23.6125Q352.0 23.440624 352.42188 23.315624Q352.84375 23.190624 353.34375 23.190624Q354.0625 23.190624 354.60938 23.409374Q355.17188 23.6125 355.4375 23.971874Q355.70312 24.33125 355.79688 24.925L354.76562 25.065624Q354.70312 24.596874 354.35938 24.33125Q354.03125 24.05 353.40625 24.05Q352.6875 24.05 352.375 24.3Q352.0625 24.534374 352.0625 24.8625Q352.0625 25.065624 352.1875 25.221874Q352.32812 25.39375 352.59375 25.503124Q352.75 25.565624 353.53125 25.76875Q354.65625 26.08125 355.09375 26.26875Q355.53125 26.45625 355.78125 26.815624Q356.03125 27.175 356.03125 27.721874Q356.03125 28.253124 355.71875 28.721874Q355.42188 29.175 354.84375 29.440624Q354.26562 29.690624 353.53125 29.690624Q352.3125 29.690624 351.67188 29.190624Q351.04688 28.675 350.875 27.690624ZM360.59375 28.6125L360.75 29.534374Q360.29688 29.628124 359.95312 29.628124Q359.375 29.628124 359.0625 29.45625Q358.75 29.26875 358.60938 28.971874Q358.48438 28.675 358.48438 27.721874L358.48438 24.14375L357.71875 24.14375L357.71875 23.33125L358.48438 23.33125L358.48438 21.784374L359.53125 21.159374L359.53125 23.33125L360.59375 23.33125L360.59375 24.14375L359.53125 24.14375L359.53125 27.784374Q359.53125 28.2375 359.57812 28.3625Q359.64062 28.4875 359.76562 28.565624Q359.89062 28.64375 360.125 28.64375Q360.3125 28.64375 360.59375 28.6125ZM360.90625 26.440624Q360.90625 24.70625 361.85938 23.878124Q362.65625 23.190624 363.8125 23.190624Q365.09375 23.190624 365.90625 24.034374Q366.73438 24.8625 366.73438 26.346874Q366.73438 27.55 366.375 28.2375Q366.01562 28.925 365.3125 29.315624Q364.625 29.690624 363.8125 29.690624Q362.51562 29.690624 361.70312 28.8625Q360.90625 28.01875 360.90625 26.440624ZM361.98438 26.440624Q361.98438 27.628124 362.5 28.221874Q363.03125 28.815624 363.8125 28.815624Q364.60938 28.815624 365.125 28.221874Q365.64062 27.628124 365.64062 26.409374Q365.64062 25.253124 365.10938 24.659374Q364.59375 24.065624 363.8125 24.065624Q363.03125 24.065624 362.5 24.659374Q361.98438 25.2375 361.98438 26.440624ZM368.29688 29.55L368.29688 23.33125L369.23438 23.33125L369.23438 24.20625Q369.53125 23.7375 370.01562 23.471874Q370.5 23.190624 371.125 23.190624Q371.8125 23.190624 372.25 23.471874Q372.70312 23.753124 372.875 24.26875Q373.625 23.190624 374.79688 23.190624Q375.73438 23.190624 376.21875 23.70625Q376.71875 24.20625 376.71875 25.284374L376.71875 29.55L375.67188 29.55L375.67188 25.628124Q375.67188 25.003124 375.5625 24.721874Q375.46875 24.440624 375.20312 24.26875Q374.9375 24.096874 374.5625 24.096874Q373.90625 24.096874 373.46875 24.534374Q373.04688 24.971874 373.04688 25.940624L373.04688 29.55L371.98438 29.55L371.98438 25.503124Q371.98438 24.8 371.71875 24.45625Q371.46875 24.096874 370.89062 24.096874Q370.4375 24.096874 370.0625 24.33125Q369.6875 24.565624 369.51562 25.01875Q369.34375 25.471874 369.34375 26.315624L369.34375 29.55L368.29688 29.55ZM383.54688 27.55L384.64062 27.675Q384.39062 28.628124 383.6875 29.159374Q382.98438 29.690624 381.90625 29.690624Q380.54688 29.690624 379.73438 28.846874Q378.9375 28.003124 378.9375 26.4875Q378.9375 24.925 379.75 24.065624Q380.5625 23.190624 381.84375 23.190624Q383.09375 23.190624 383.875 24.034374Q384.67188 24.878124 384.67188 26.425Q384.67188 26.51875 384.67188 26.70625L380.03125 26.70625Q380.09375 27.7375 380.60938 28.284374Q381.125 28.815624 381.90625 28.815624Q382.48438 28.815624 382.89062 28.51875Q383.3125 28.20625 383.54688 27.55ZM380.09375 25.846874L383.5625 25.846874Q383.5 25.05 383.17188 24.659374Q382.65625 24.05 381.85938 24.05Q381.125 24.05 380.625 24.534374Q380.14062 25.01875 380.09375 25.846874ZM386.28125 29.55L386.28125 23.33125L387.23438 23.33125L387.23438 24.26875Q387.59375 23.6125 387.89062 23.409374Q388.20312 23.190624 388.57812 23.190624Q389.10938 23.190624 389.65625 23.51875L389.29688 24.503124Q388.90625 24.26875 388.53125 24.26875Q388.17188 24.26875 387.89062 24.4875Q387.625 24.690624 387.51562 25.065624Q387.32812 25.628124 387.32812 26.284374L387.32812 29.55L386.28125 29.55ZM393.04688 26.784374L394.10938 26.690624Q394.1875 27.346874 394.46875 27.753124Q394.75 28.159374 395.32812 28.425Q395.92188 28.675 396.65625 28.675Q397.29688 28.675 397.79688 28.4875Q398.29688 28.284374 398.53125 27.95625Q398.78125 27.6125 398.78125 27.221874Q398.78125 26.815624 398.54688 26.51875Q398.3125 26.20625 397.78125 26.003124Q397.42188 25.8625 396.23438 25.58125Q395.0625 25.3 394.59375 25.05Q393.96875 24.721874 393.67188 24.253124Q393.375 23.76875 393.375 23.175Q393.375 22.534374 393.73438 21.971874Q394.10938 21.39375 394.8125 21.1125Q395.53125 20.815624 396.39062 20.815624Q397.34375 20.815624 398.07812 21.128124Q398.8125 21.425 399.20312 22.034374Q399.59375 22.628124 399.625 23.378124L398.53125 23.45625Q398.4375 22.64375 397.92188 22.2375Q397.42188 21.815624 396.4375 21.815624Q395.40625 21.815624 394.9375 22.190624Q394.46875 22.565624 394.46875 23.096874Q394.46875 23.565624 394.79688 23.8625Q395.125 24.159374 396.5 24.471874Q397.89062 24.784374 398.40625 25.01875Q399.15625 25.378124 399.51562 25.909374Q399.875 26.425 399.875 27.128124Q399.875 27.815624 399.48438 28.425Q399.09375 29.01875 398.35938 29.3625Q397.625 29.690624 396.70312 29.690624Q395.53125 29.690624 394.73438 29.3625Q393.95312 29.01875 393.5 28.33125Q393.0625 27.64375 393.04688 26.784374ZM405.35938 28.784374Q404.76562 29.284374 404.21875 29.4875Q403.6875 29.690624 403.0625 29.690624Q402.03125 29.690624 401.48438 29.190624Q400.9375 28.690624 400.9375 27.909374Q400.9375 27.45625 401.14062 27.08125Q401.34375 26.690624 401.6875 26.471874Q402.03125 26.2375 402.45312 26.128124Q402.75 26.034374 403.39062 25.95625Q404.65625 25.815624 405.26562 25.596874Q405.26562 25.378124 405.26562 25.33125Q405.26562 24.675 404.96875 24.409374Q404.5625 24.065624 403.76562 24.065624Q403.03125 24.065624 402.67188 24.33125Q402.3125 24.58125 402.14062 25.2375L401.10938 25.096874Q401.25 24.440624 401.57812 24.034374Q401.90625 23.628124 402.51562 23.409374Q403.125 23.190624 403.92188 23.190624Q404.71875 23.190624 405.21875 23.378124Q405.71875 23.565624 405.95312 23.846874Q406.1875 24.128124 406.28125 24.565624Q406.32812 24.83125 406.32812 25.534374L406.32812 26.940624Q406.32812 28.409374 406.39062 28.8Q406.46875 29.190624 406.67188 29.55L405.5625 29.55Q405.40625 29.221874 405.35938 28.784374ZM405.26562 26.425Q404.6875 26.659374 403.54688 26.83125Q402.89062 26.925 402.625 27.05Q402.35938 27.159374 402.20312 27.378124Q402.0625 27.596874 402.0625 27.878124Q402.0625 28.3 402.375 28.58125Q402.70312 28.8625 403.3125 28.8625Q403.92188 28.8625 404.39062 28.596874Q404.875 28.33125 405.09375 27.8625Q405.26562 27.503124 405.26562 26.815624L405.26562 26.425ZM410.01562 29.55L407.65625 23.33125L408.76562 23.33125L410.10938 27.05Q410.3125 27.659374 410.5 28.3Q410.64062 27.815624 410.89062 27.128124L412.28125 23.33125L413.35938 23.33125L411.0 29.55L410.01562 29.55ZM413.29688 22.175L413.29688 20.95625L414.35938 20.95625L414.35938 22.175L413.29688 22.175ZM413.29688 29.55L413.29688 23.33125L414.35938 23.33125L414.35938 29.55L413.29688 29.55ZM416.29688 29.55L416.29688 23.33125L417.23438 23.33125L417.23438 24.20625Q417.92188 23.190624 419.21875 23.190624Q419.78125 23.190624 420.25 23.39375Q420.73438 23.596874 420.96875 23.925Q421.20312 24.253124 421.29688 24.690624Q421.34375 24.9875 421.34375 25.721874L421.34375 29.55L420.29688 29.55L420.29688 25.76875Q420.29688 25.1125 420.17188 24.8Q420.04688 24.4875 419.73438 24.3Q419.42188 24.096874 419.0 24.096874Q418.32812 24.096874 417.82812 24.534374Q417.34375 24.95625 417.34375 26.14375L417.34375 29.55L416.29688 29.55ZM423.09375 30.065624L424.125 30.221874Q424.1875 30.690624 424.48438 30.909374Q424.875 31.20625 425.54688 31.20625Q426.28125 31.20625 426.67188 30.909374Q427.07812 30.6125 427.21875 30.096874Q427.3125 29.76875 427.29688 28.7375Q426.60938 29.55 425.57812 29.55Q424.29688 29.55 423.59375 28.628124Q422.89062 27.690624 422.89062 26.409374Q422.89062 25.51875 423.20312 24.76875Q423.53125 24.003124 424.14062 23.596874Q424.75 23.190624 425.57812 23.190624Q426.6875 23.190624 427.40625 24.08125L427.40625 23.33125L428.375 23.33125L428.375 28.70625Q428.375 30.159374 428.07812 30.76875Q427.78125 31.378124 427.14062 31.721874Q426.5 32.08125 425.5625 32.08125Q424.45312 32.08125 423.76562 31.58125Q423.07812 31.08125 423.09375 30.065624ZM423.96875 26.33125Q423.96875 27.55 424.45312 28.1125Q424.9375 28.675 425.67188 28.675Q426.40625 28.675 426.89062 28.1125Q427.39062 27.55 427.39062 26.3625Q427.39062 25.221874 426.875 24.64375Q426.375 24.065624 425.65625 24.065624Q424.95312 24.065624 424.45312 24.64375Q423.96875 25.20625 423.96875 26.33125ZM429.875 27.690624L430.90625 27.534374Q431.0 28.159374 431.39062 28.4875Q431.79688 28.815624 432.53125 28.815624Q433.25 28.815624 433.59375 28.534374Q433.95312 28.2375 433.95312 27.83125Q433.95312 27.471874 433.64062 27.26875Q433.42188 27.128124 432.5625 26.909374Q431.40625 26.6125 430.95312 26.409374Q430.51562 26.190624 430.28125 25.815624Q430.04688 25.440624 430.04688 24.971874Q430.04688 24.565624 430.23438 24.20625Q430.42188 23.846874 430.75 23.6125Q431.0 23.440624 431.42188 23.315624Q431.84375 23.190624 432.34375 23.190624Q433.0625 23.190624 433.60938 23.409374Q434.17188 23.6125 434.4375 23.971874Q434.70312 24.33125 434.79688 24.925L433.76562 25.065624Q433.70312 24.596874 433.35938 24.33125Q433.03125 24.05 432.40625 24.05Q431.6875 24.05 431.375 24.3Q431.0625 24.534374 431.0625 24.8625Q431.0625 25.065624 431.1875 25.221874Q431.32812 25.39375 431.59375 25.503124Q431.75 25.565624 432.53125 25.76875Q433.65625 26.08125 434.09375 26.26875Q434.53125 26.45625 434.78125 26.815624Q435.03125 27.175 435.03125 27.721874Q435.03125 28.253124 434.71875 28.721874Q434.42188 29.175 433.84375 29.440624Q433.26562 29.690624 432.53125 29.690624Q431.3125 29.690624 430.67188 29.190624Q430.04688 28.675 429.875 27.690624ZM440.42188 29.55L440.42188 20.95625L443.67188 20.95625Q444.51562 20.95625 444.96875 21.034374Q445.60938 21.14375 446.03125 21.440624Q446.46875 21.7375 446.71875 22.26875Q446.98438 22.8 446.98438 23.440624Q446.98438 24.534374 446.28125 25.3Q445.59375 26.05 443.76562 26.05L441.5625 26.05L441.5625 29.55L440.42188 29.55ZM441.5625 25.05L443.78125 25.05Q444.89062 25.05 445.34375 24.64375Q445.8125 24.221874 445.8125 23.471874Q445.8125 22.940624 445.53125 22.565624Q445.26562 22.175 444.82812 22.05Q444.53125 21.971874 443.76562 21.971874L441.5625 21.971874L441.5625 25.05ZM447.90625 26.440624Q447.90625 24.70625 448.85938 23.878124Q449.65625 23.190624 450.8125 23.190624Q452.09375 23.190624 452.90625 24.034374Q453.73438 24.8625 453.73438 26.346874Q453.73438 27.55 453.375 28.2375Q453.01562 28.925 452.3125 29.315624Q451.625 29.690624 450.8125 29.690624Q449.51562 29.690624 448.70312 28.8625Q447.90625 28.01875 447.90625 26.440624ZM448.98438 26.440624Q448.98438 27.628124 449.5 28.221874Q450.03125 28.815624 450.8125 28.815624Q451.60938 28.815624 452.125 28.221874Q452.64062 27.628124 452.64062 26.409374Q452.64062 25.253124 452.10938 24.659374Q451.59375 24.065624 450.8125 24.065624Q450.03125 24.065624 449.5 24.659374Q448.98438 25.2375 448.98438 26.440624ZM457.59375 28.6125L457.75 29.534374Q457.29688 29.628124 456.95312 29.628124Q456.375 29.628124 456.0625 29.45625Q455.75 29.26875 455.60938 28.971874Q455.48438 28.675 455.48438 27.721874L455.48438 24.14375L454.71875 24.14375L454.71875 23.33125L455.48438 23.33125L455.48438 21.784374L456.53125 21.159374L456.53125 23.33125L457.59375 23.33125L457.59375 24.14375L456.53125 24.14375L456.53125 27.784374Q456.53125 28.2375 456.57812 28.3625Q456.64062 28.4875 456.76562 28.565624Q456.89062 28.64375 457.125 28.64375Q457.3125 28.64375 457.59375 28.6125ZM462.54688 27.55L463.64062 27.675Q463.39062 28.628124 462.6875 29.159374Q461.98438 29.690624 460.90625 29.690624Q459.54688 29.690624 458.73438 28.846874Q457.9375 28.003124 457.9375 26.4875Q457.9375 24.925 458.75 24.065624Q459.5625 23.190624 460.84375 23.190624Q462.09375 23.190624 462.875 24.034374Q463.67188 24.878124 463.67188 26.425Q463.67188 26.51875 463.67188 26.70625L459.03125 26.70625Q459.09375 27.7375 459.60938 28.284374Q460.125 28.815624 460.90625 28.815624Q461.48438 28.815624 461.89062 28.51875Q462.3125 28.20625 462.54688 27.55ZM459.09375 25.846874L462.5625 25.846874Q462.5 25.05 462.17188 24.659374Q461.65625 24.05 460.85938 24.05Q460.125 24.05 459.625 24.534374Q459.14062 25.01875 459.09375 25.846874ZM465.29688 29.55L465.29688 23.33125L466.23438 23.33125L466.23438 24.20625Q466.92188 23.190624 468.21875 23.190624Q468.78125 23.190624 469.25 23.39375Q469.73438 23.596874 469.96875 23.925Q470.20312 24.253124 470.29688 24.690624Q470.34375 24.9875 470.34375 25.721874L470.34375 29.55L469.29688 29.55L469.29688 25.76875Q469.29688 25.1125 469.17188 24.8Q469.04688 24.4875 468.73438 24.3Q468.42188 24.096874 468.0 24.096874Q467.32812 24.096874 466.82812 24.534374Q466.34375 24.95625 466.34375 26.14375L466.34375 29.55L465.29688 29.55ZM474.59375 28.6125L474.75 29.534374Q474.29688 29.628124 473.95312 29.628124Q473.375 29.628124 473.0625 29.45625Q472.75 29.26875 472.60938 28.971874Q472.48438 28.675 472.48438 27.721874L472.48438 24.14375L471.71875 24.14375L471.71875 23.33125L472.48438 23.33125L472.48438 21.784374L473.53125 21.159374L473.53125 23.33125L474.59375 23.33125L474.59375 24.14375L473.53125 24.14375L473.53125 27.784374Q473.53125 28.2375 473.57812 28.3625Q473.64062 28.4875 473.76562 28.565624Q473.89062 28.64375 474.125 28.64375Q474.3125 28.64375 474.59375 28.6125ZM475.29688 22.175L475.29688 20.95625L476.35938 20.95625L476.35938 22.175L475.29688 22.175ZM475.29688 29.55L475.29688 23.33125L476.35938 23.33125L476.35938 29.55L475.29688 29.55ZM482.35938 28.784374Q481.76562 29.284374 481.21875 29.4875Q480.6875 29.690624 480.0625 29.690624Q479.03125 29.690624 478.48438 29.190624Q477.9375 28.690624 477.9375 27.909374Q477.9375 27.45625 478.14062 27.08125Q478.34375 26.690624 478.6875 26.471874Q479.03125 26.2375 479.45312 26.128124Q479.75 26.034374 480.39062 25.95625Q481.65625 25.815624 482.26562 25.596874Q482.26562 25.378124 482.26562 25.33125Q482.26562 24.675 481.96875 24.409374Q481.5625 24.065624 480.76562 24.065624Q480.03125 24.065624 479.67188 24.33125Q479.3125 24.58125 479.14062 25.2375L478.10938 25.096874Q478.25 24.440624 478.57812 24.034374Q478.90625 23.628124 479.51562 23.409374Q480.125 23.190624 480.92188 23.190624Q481.71875 23.190624 482.21875 23.378124Q482.71875 23.565624 482.95312 23.846874Q483.1875 24.128124 483.28125 24.565624Q483.32812 24.83125 483.32812 25.534374L483.32812 26.940624Q483.32812 28.409374 483.39062 28.8Q483.46875 29.190624 483.67188 29.55L482.5625 29.55Q482.40625 29.221874 482.35938 28.784374ZM482.26562 26.425Q481.6875 26.659374 480.54688 26.83125Q479.89062 26.925 479.625 27.05Q479.35938 27.159374 479.20312 27.378124Q479.0625 27.596874 479.0625 27.878124Q479.0625 28.3 479.375 28.58125Q479.70312 28.8625 480.3125 28.8625Q480.92188 28.8625 481.39062 28.596874Q481.875 28.33125 482.09375 27.8625Q482.26562 27.503124 482.26562 26.815624L482.26562 26.425ZM485.26562 29.55L485.26562 20.95625L486.32812 20.95625L486.32812 29.55L485.26562 29.55Z" fill-rule="nonzero"/></svg>