<svg version="1.1" viewBox="0.0 0.0 600.0 371.0" fill="none" stroke="none" stroke-linecap="square" stroke-miterlimit="10" width="600" height="371" xmlns:xlink="http://www.w3.org/1999/xlink" xmlns="http://www.w3.org/2000/svg"><path fill="#ffffff" d="M0 0L600.0 0L600.0 371.0L0 371.0L0 0Z" fill-rule="nonzero"/><path stroke="#333333" stroke-width="1.0" stroke-linecap="butt" d="M45.5 332.5L581.5 332.5" fill-rule="nonzero"/><path stroke="#cccccc" stroke-width="1.0" stroke-linecap="butt" d="M45.5 262.5L581.5 262.5" fill-rule="nonzero"/><path stroke="#cccccc" stroke-width="1.0" stroke-linecap="butt" d="M45.5 192.5L581.5 192.5" fill-rule="nonzero"/><path stroke="#cccccc" stroke-width="1.0" stroke-linecap="butt" d="M45.5 122.5L581.5 122.5" fill-rule="nonzero"/><path stroke="#cccccc" stroke-width="1.0" stroke-linecap="butt" d="M45.5 51.5L581.5 51.5" fill-rule="nonzero"/><clipPath id="id_0"><path d="M45.55 51.916668L581.45 51.916668L581.45 332.45L45.55 332.45L45.55 51.916668Z" clip-rule="nonzero"/></clipPath><path stroke="#000000" stroke-width="2.0" stroke-linecap="butt" stroke-opacity="0.0" clip-path="url(#id_0)" d="M169.0 332.0L89.0 332.0L89.0 332.0L169.0 332.0Z" fill-rule="nonzero"/><path fill="#ea4335" clip-path="url(#id_0)" d="M169.0 332.0L89.0 332.0L89.0 332.0L169.0 332.0Z" fill-rule="nonzero"/><path stroke="#000000" stroke-width="2.0" stroke-linecap="butt" stroke-opacity="0.0" clip-path="url(#id_0)" d="M292.0 332.0L212.0 332.0L212.0 122.0L292.0 122.0Z" fill-rule="nonzero"/><path fill="#ea4335" clip-path="url(#id_0)" d="M292.0 332.0L212.0 332.0L212.0 122.0L292.0 122.0Z" fill-rule="nonzero"/><path stroke="#000000" stroke-width="2.0" stroke-linecap="butt" stroke-opacity="0.0" clip-path="url(#id_0)" d="M415.0 332.0L335.0 332.0L335.0 87.0L415.0 87.0Z" fill-rule="nonzero"/><path fill="#ea4335" clip-path="url(#id_0)" d="M415.0 332.0L335.0 332.0L335.0 87.0L415.0 87.0Z" fill-rule="nonzero"/><path stroke="#000000" stroke-width="2.0" stroke-linecap="butt" stroke-opacity="0.0" clip-path="url(#id_0)" d="M538.0 332.0L458.0 332.0L458.0 122.0L538.0 122.0Z" fill-rule="nonzero"/><path fill="#ea4335" clip-path="url(#id_0)" d="M538.0 332.0L458.0 332.0L458.0 122.0L538.0 122.0Z" fill-rule="nonzero"/><path stroke="#000000" stroke-width="2.0" stroke-linecap="butt" stroke-opacity="0.0" clip-path="url(#id_0)" d="M169.0 332.0L89.0 332.0L89.0 320.0C89.0 318.89542 89.89543 318.0 91.0 318.0L167.0 318.0C168.10457 318.0 169.0 318.89542 169.0 320.0Z" fill-rule="nonzero"/><path fill="#ffd966" clip-path="url(#id_0)" d="M169.0 332.0L89.0 332.0L89.0 320.0C89.0 318.89542 89.89543 318.0 91.0 318.0L167.0 318.0C168.10457 318.0 169.0 318.89542 169.0 320.0Z" fill-rule="nonzero"/><path stroke="#000000" stroke-width="2.0" stroke-linecap="butt" stroke-opacity="0.0" clip-path="url(#id_0)" d="M292.0 122.0L212.0 122.0L212.0 89.0C212.0 87.89543 212.89543 87.0 214.0 87.0L290.0 87.0C291.10458 87.0 292.0 87.89543 292.0 89.0Z" fill-rule="nonzero"/><path fill="#ffd966" clip-path="url(#id_0)" d="M292.0 122.0L212.0 122.0L212.0 89.0C212.0 87.89543 212.89543 87.0 214.0 87.0L290.0 87.0C291.10458 87.0 292.0 87.89543 292.0 89.0Z" fill-rule="nonzero"/><path stroke="#000000" stroke-width="2.0" stroke-linecap="butt" stroke-opacity="0.0" clip-path="url(#id_0)" d="M415.0 87.0L335.0 87.0L335.0 68.0C335.0 66.89543 335.89542 66.0 337.0 66.0L413.0 66.0C414.10458 66.0 415.0 66.89543 415.0 68.0Z" fill-rule="nonzero"/><path fill="#ffd966" clip-path="url(#id_0)" d="M415.0 87.0L335.0 87.0L335.0 68.0C335.0 66.89543 335.89542 66.0 337.0 66.0L413.0 66.0C414.10458 66.0 415.0 66.89543 415.0 68.0Z" fill-rule="nonzero"/><path stroke="#000000" stroke-width="2.0" stroke-linecap="butt" stroke-opacity="0.0" clip-path="url(#id_0)" d="M538.0 122.0L458.0 122.0L458.0 89.0C458.0 87.89543 458.89542 87.0 460.0 87.0L536.0 87.0C537.10455 87.0 538.0 87.89543 538.0 89.0Z" fill-rule="nonzero"/><path fill="#ffd966" clip-path="url(#id_0)" d="M538.0 122.0L458.0 122.0L458.0 89.0C458.0 87.89543 458.89542 87.0 460.0 87.0L536.0 87.0C537.10455 87.0 538.0 87.89543 538.0 89.0Z" fill-rule="nonzero"/><path fill="#000000" d="M33.05 332.21564Q33.05 330.6844 33.3625 329.7625Q33.675 328.825 34.284374 328.325Q34.909374 327.825 35.846874 327.825Q36.534374 327.825 37.05 328.10626Q37.58125 328.3875 37.925 328.91876Q38.26875 329.4344 38.45625 330.1844Q38.64375 330.9344 38.64375 332.21564Q38.64375 333.73126 38.33125 334.65314Q38.034374 335.575 37.409374 336.09064Q36.8 336.59064 35.846874 336.59064Q34.6125 336.59064 33.89375 335.7Q33.05 334.6375 33.05 332.21564ZM34.128124 332.21564Q34.128124 334.325 34.628124 335.02814Q35.128124 335.73126 35.846874 335.73126Q36.58125 335.73126 37.065624 335.02814Q37.565624 334.325 37.565624 332.21564Q37.565624 330.09064 37.065624 329.40314Q36.58125 328.7 35.83125 328.7Q35.1125 328.7 34.675 329.3094Q34.128124 330.09064 34.128124 332.21564Z" fill-rule="nonzero"/><path fill="#000000" d="M30.01875 266.31668L28.971874 266.31668L28.971874 259.59793Q28.58125 259.9573 27.95625 260.3323Q27.346874 260.69168 26.8625 260.86356L26.8625 259.84793Q27.7375 259.42606 28.39375 258.84793Q29.065624 258.25418 29.346874 257.69168L30.01875 257.69168L30.01875 266.31668ZM33.05 262.0823Q33.05 260.55106 33.3625 259.62918Q33.675 258.69168 34.284374 258.19168Q34.909374 257.69168 35.846874 257.69168Q36.534374 257.69168 37.05 257.97293Q37.58125 258.25418 37.925 258.78543Q38.26875 259.30106 38.45625 260.05106Q38.64375 260.80106 38.64375 262.0823Q38.64375 263.59793 38.33125 264.5198Q38.034374 265.44168 37.409374 265.9573Q36.8 266.4573 35.846874 266.4573Q34.6125 266.4573 33.89375 265.56668Q33.05 264.50418 33.05 262.0823ZM34.128124 262.0823Q34.128124 264.19168 34.628124 264.8948Q35.128124 265.59793 35.846874 265.59793Q36.58125 265.59793 37.065624 264.8948Q37.565624 264.19168 37.565624 262.0823Q37.565624 259.9573 37.065624 259.2698Q36.58125 258.56668 35.83125 258.56668Q35.1125 258.56668 34.675 259.17606Q34.128124 259.9573 34.128124 262.0823Z" fill-rule="nonzero"/><path fill="#000000" d="M31.596874 195.16771L31.596874 196.18333L25.909374 196.18333Q25.909374 195.80833 26.034374 195.44896Q26.253124 194.87083 26.721874 194.30833Q27.20625 193.74583 28.1125 193.01146Q29.51875 191.85521 30.003124 191.18333Q30.503124 190.51146 30.503124 189.91771Q30.503124 189.29271 30.05 188.87083Q29.596874 188.43333 28.878124 188.43333Q28.1125 188.43333 27.659374 188.88646Q27.20625 189.33958 27.190624 190.15208L26.1125 190.04271Q26.221874 188.82396 26.940624 188.19896Q27.675 187.55833 28.909374 187.55833Q30.14375 187.55833 30.8625 188.24583Q31.58125 188.93333 31.58125 189.94896Q31.58125 190.46458 31.3625 190.96458Q31.159374 191.44896 30.659374 192.01146Q30.175 192.55833 29.05 193.51146Q28.096874 194.30833 27.815624 194.60521Q27.55 194.88646 27.378124 195.16771L31.596874 195.16771ZM33.05 191.94896Q33.05 190.41771 33.3625 189.49583Q33.675 188.55833 34.284374 188.05833Q34.909374 187.55833 35.846874 187.55833Q36.534374 187.55833 37.05 187.83958Q37.58125 188.12083 37.925 188.65208Q38.26875 189.16771 38.45625 189.91771Q38.64375 190.66771 38.64375 191.94896Q38.64375 193.46458 38.33125 194.38646Q38.034374 195.30833 37.409374 195.82396Q36.8 196.32396 35.846874 196.32396Q34.6125 196.32396 33.89375 195.43333Q33.05 194.37083 33.05 191.94896ZM34.128124 191.94896Q34.128124 194.05833 34.628124 194.76146Q35.128124 195.46458 35.846874 195.46458Q36.58125 195.46458 37.065624 194.76146Q37.565624 194.05833 37.565624 191.94896Q37.565624 189.82396 37.065624 189.13646Q36.58125 188.43333 35.83125 188.43333Q35.1125 188.43333 34.675 189.04271Q34.128124 189.82396 34.128124 191.94896Z" fill-rule="nonzero"/><path fill="#000000" d="M26.05 123.78438L27.1125 123.64375Q27.284374 124.53438 27.721874 124.94063Q28.159374 125.33125 28.784374 125.33125Q29.534374 125.33125 30.05 124.81563Q30.565624 124.3 30.565624 123.53438Q30.565624 122.81563 30.08125 122.34688Q29.6125 121.8625 28.878124 121.8625Q28.58125 121.8625 28.128124 121.9875L28.253124 121.05Q28.3625 121.06563 28.425 121.06563Q29.096874 121.06563 29.628124 120.72188Q30.175 120.3625 30.175 119.62813Q30.175 119.05 29.784374 118.675Q29.39375 118.28438 28.76875 118.28438Q28.159374 118.28438 27.7375 118.675Q27.33125 119.06563 27.221874 119.83125L26.159374 119.64375Q26.346874 118.59688 27.034374 118.01875Q27.721874 117.425 28.7375 117.425Q29.440624 117.425 30.034374 117.7375Q30.628124 118.03438 30.940624 118.55Q31.253124 119.06563 31.253124 119.65938Q31.253124 120.20625 30.95625 120.675Q30.659374 121.12813 30.08125 121.39375Q30.83125 121.56563 31.253124 122.12813Q31.675 122.675 31.675 123.51875Q31.675 124.64375 30.846874 125.425Q30.034374 126.20625 28.784374 126.20625Q27.659374 126.20625 26.909374 125.53438Q26.159374 124.84688 26.05 123.78438ZM33.05 121.81563Q33.05 120.28438 33.3625 119.3625Q33.675 118.425 34.284374 117.925Q34.909374 117.425 35.846874 117.425Q36.534374 117.425 37.05 117.70625Q37.58125 117.9875 37.925 118.51875Q38.26875 119.03438 38.45625 119.78438Q38.64375 120.53438 38.64375 121.81563Q38.64375 123.33125 38.33125 124.25313Q38.034374 125.175 37.409374 125.69063Q36.8 126.19063 35.846874 126.19063Q34.6125 126.19063 33.89375 125.3Q33.05 124.2375 33.05 121.81563ZM34.128124 121.81563Q34.128124 123.925 34.628124 124.62813Q35.128124 125.33125 35.846874 125.33125Q36.58125 125.33125 37.065624 124.62813Q37.565624 123.925 37.565624 121.81563Q37.565624 119.69063 37.065624 119.00313Q36.58125 118.3 35.83125 118.3Q35.1125 118.3 34.675 118.90938Q34.128124 119.69063 34.128124 121.81563Z" fill-rule="nonzero"/><path fill="#000000" d="M29.425 55.916668L29.425 53.854168L25.70625 53.854168L25.70625 52.885418L29.628124 47.322918L30.4875 47.322918L30.4875 52.885418L31.64375 52.885418L31.64375 53.854168L30.4875 53.854168L30.4875 55.916668L29.425 55.916668ZM29.425 52.885418L29.425 49.026043L26.7375 52.885418L29.425 52.885418ZM33.05 51.682293Q33.05 50.151043 33.3625 49.229168Q33.675 48.291668 34.284374 47.791668Q34.909374 47.291668 35.846874 47.291668Q36.534374 47.291668 37.05 47.572918Q37.58125 47.854168 37.925 48.385418Q38.26875 48.901043 38.45625 49.651043Q38.64375 50.401043 38.64375 51.682293Q38.64375 53.197918 38.33125 54.119793Q38.034374 55.041668 37.409374 55.557293Q36.8 56.057293 35.846874 56.057293Q34.6125 56.057293 33.89375 55.166668Q33.05 54.104168 33.05 51.682293ZM34.128124 51.682293Q34.128124 53.791668 34.628124 54.494793Q35.128124 55.197918 35.846874 55.197918Q36.58125 55.197918 37.065624 54.494793Q37.565624 53.791668 37.565624 51.682293Q37.565624 49.557293 37.065624 48.869793Q36.58125 48.166668 35.83125 48.166668Q35.1125 48.166668 34.675 48.776043Q34.128124 49.557293 34.128124 51.682293Z" fill-rule="nonzero"/><path fill="#000000" d="M69.28502 345.2625Q69.28502 343.1219 70.425644 341.91876Q71.581894 340.7 73.394394 340.7Q74.59752 340.7 75.550644 341.27814Q76.50377 341.84064 77.00377 342.85626Q77.50377 343.8719 77.50377 345.16876Q77.50377 346.46564 76.97252 347.4969Q76.44127 348.52814 75.47252 349.0594Q74.519394 349.59064 73.394394 349.59064Q72.175644 349.59064 71.22252 349.0125Q70.269394 348.41876 69.769394 347.41876Q69.28502 346.40314 69.28502 345.2625ZM70.456894 345.27814Q70.456894 346.84064 71.28502 347.73126Q72.12877 348.6219 73.394394 348.6219Q74.675644 348.6219 75.50377 347.73126Q76.331894 346.825 76.331894 345.15314Q76.331894 344.10626 75.97252 343.325Q75.62877 342.54376 74.94127 342.1219Q74.25377 341.6844 73.41002 341.6844Q72.206894 341.6844 71.331894 342.5125Q70.456894 343.34064 70.456894 345.27814ZM82.581894 349.45L82.581894 348.52814Q81.84752 349.59064 80.59752 349.59064Q80.050644 349.59064 79.56627 349.3875Q79.09752 349.16876 78.863144 348.85626Q78.62877 348.52814 78.53502 348.0594Q78.47252 347.7625 78.47252 347.075L78.47252 343.23126L79.53502 343.23126L79.53502 346.6844Q79.53502 347.4969 79.59752 347.79376Q79.69127 348.2 80.00377 348.45Q80.331894 348.6844 80.81627 348.6844Q81.28502 348.6844 81.69127 348.45Q82.113144 348.2 82.28502 347.77814Q82.47252 347.35626 82.47252 346.5594L82.47252 343.23126L83.519394 343.23126L83.519394 349.45L82.581894 349.45ZM85.488144 349.45L85.488144 343.23126L86.44127 343.23126L86.44127 344.16876Q86.800644 343.5125 87.09752 343.3094Q87.41002 343.09064 87.78502 343.09064Q88.31627 343.09064 88.863144 343.41876L88.50377 344.40314Q88.113144 344.16876 87.738144 344.16876Q87.37877 344.16876 87.09752 344.3875Q86.831894 344.59064 86.72252 344.96564Q86.53502 345.52814 86.53502 346.1844L86.53502 349.45L85.488144 349.45ZM92.62877 349.45L92.62877 340.85626L95.87877 340.85626Q96.72252 340.85626 97.175644 340.9344Q97.81627 341.04376 98.238144 341.34064Q98.675644 341.6375 98.925644 342.16876Q99.19127 342.7 99.19127 343.34064Q99.19127 344.4344 98.488144 345.2Q97.800644 345.95 95.97252 345.95L93.769394 345.95L93.769394 349.45L92.62877 349.45ZM93.769394 344.95L95.988144 344.95Q97.09752 344.95 97.550644 344.54376Q98.019394 344.1219 98.019394 343.3719Q98.019394 342.84064 97.738144 342.46564Q97.47252 342.075 97.03502 341.95Q96.738144 341.8719 95.97252 341.8719L93.769394 341.8719L93.769394 344.95ZM100.488144 349.45L100.488144 343.23126L101.44127 343.23126L101.44127 344.16876Q101.800644 343.5125 102.09752 343.3094Q102.41002 343.09064 102.78502 343.09064Q103.31627 343.09064 103.863144 343.41876L103.50377 344.40314Q103.113144 344.16876 102.738144 344.16876Q102.37877 344.16876 102.09752 344.3875Q101.831894 344.59064 101.72252 344.96564Q101.53502 345.52814 101.53502 346.1844L101.53502 349.45L100.488144 349.45ZM104.113144 346.34064Q104.113144 344.60626 105.06627 343.77814Q105.863144 343.09064 107.019394 343.09064Q108.300644 343.09064 109.113144 343.9344Q109.94127 344.7625 109.94127 346.2469Q109.94127 347.45 109.581894 348.1375Q109.22252 348.825 108.519394 349.21564Q107.831894 349.59064 107.019394 349.59064Q105.72252 349.59064 104.91002 348.7625Q104.113144 347.91876 104.113144 346.34064ZM105.19127 346.34064Q105.19127 347.52814 105.706894 348.1219Q106.238144 348.71564 107.019394 348.71564Q107.81627 348.71564 108.331894 348.1219Q108.84752 347.52814 108.84752 346.3094Q108.84752 345.15314 108.31627 344.5594Q107.800644 343.96564 107.019394 343.96564Q106.238144 343.96564 105.706894 344.5594Q105.19127 345.1375 105.19127 346.34064ZM115.53502 349.45L115.53502 348.66876Q114.94127 349.59064 113.800644 349.59064Q113.050644 349.59064 112.425644 349.1844Q111.800644 348.7625 111.456894 348.02814Q111.113144 347.29376 111.113144 346.34064Q111.113144 345.41876 111.425644 344.65314Q111.738144 343.8875 112.363144 343.4969Q112.988144 343.09064 113.75377 343.09064Q114.31627 343.09064 114.75377 343.325Q115.19127 343.5594 115.47252 343.9344L115.47252 340.85626L116.519394 340.85626L116.519394 349.45L115.53502 349.45ZM112.206894 346.34064Q112.206894 347.54376 112.706894 348.1375Q113.206894 348.71564 113.894394 348.71564Q114.581894 348.71564 115.06627 348.15314Q115.550644 347.59064 115.550644 346.4344Q115.550644 345.15314 115.050644 344.5594Q114.56627 343.96564 113.84752 343.96564Q113.144394 343.96564 112.675644 344.54376Q112.206894 345.10626 112.206894 346.34064ZM122.581894 349.45L122.581894 348.52814Q121.84752 349.59064 120.59752 349.59064Q120.050644 349.59064 119.56627 349.3875Q119.09752 349.16876 118.863144 348.85626Q118.62877 348.52814 118.53502 348.0594Q118.47252 347.7625 118.47252 347.075L118.47252 343.23126L119.53502 343.23126L119.53502 346.6844Q119.53502 347.4969 119.59752 347.79376Q119.69127 348.2 120.00377 348.45Q120.331894 348.6844 120.81627 348.6844Q121.28502 348.6844 121.69127 348.45Q122.113144 348.2 122.28502 347.77814Q122.47252 347.35626 122.47252 346.5594L122.47252 343.23126L123.519394 343.23126L123.519394 349.45L122.581894 349.45ZM129.56627 347.16876L130.59752 347.3094Q130.42564 348.3719 129.72252 348.98126Q129.0194 349.59064 128.00377 349.59064Q126.72252 349.59064 125.94127 348.7625Q125.175644 347.91876 125.175644 346.35626Q125.175644 345.35626 125.50377 344.60626Q125.84752 343.84064 126.519394 343.46564Q127.206894 343.09064 128.0194 343.09064Q129.0194 343.09064 129.66002 343.60626Q130.31627 344.10626 130.50377 345.0594L129.47252 345.21564Q129.3319 344.59064 128.9569 344.27814Q128.5819 343.95 128.05064 343.95Q127.25377 343.95 126.75377 344.52814Q126.25377 345.09064 126.25377 346.325Q126.25377 347.59064 126.738144 348.15314Q127.22252 348.71564 127.988144 348.71564Q128.61314 348.71564 129.0194 348.34064Q129.44127 347.96564 129.56627 347.16876ZM133.80064 348.5125L133.9569 349.4344Q133.50377 349.52814 133.16002 349.52814Q132.5819 349.52814 132.2694 349.35626Q131.9569 349.16876 131.81627 348.8719Q131.69127 348.575 131.69127 347.6219L131.69127 344.04376L130.92564 344.04376L130.92564 343.23126L131.69127 343.23126L131.69127 341.6844L132.73814 341.0594L132.73814 343.23126L133.80064 343.23126L133.80064 344.04376L132.73814 344.04376L132.73814 347.6844Q132.73814 348.1375 132.78502 348.2625Q132.84752 348.3875 132.97252 348.46564Q133.09752 348.54376 133.3319 348.54376Q133.5194 348.54376 133.80064 348.5125ZM139.5194 351.98126Q138.6444 350.8719 138.03502 349.40314Q137.44127 347.91876 137.44127 346.34064Q137.44127 344.95 137.87877 343.66876Q138.41002 342.1844 139.5194 340.71564L140.2694 340.71564Q139.56627 341.9344 139.3319 342.45Q138.97252 343.2625 138.7694 344.1375Q138.5194 345.23126 138.5194 346.34064Q138.5194 349.16876 140.2694 351.98126L139.5194 351.98126ZM144.05064 349.45L144.05064 345.8094L140.73814 340.85626L142.12877 340.85626L143.81627 343.45Q144.28502 344.16876 144.69127 344.90314Q145.0819 344.23126 145.62877 343.3875L147.30064 340.85626L148.61314 340.85626L145.19127 345.8094L145.19127 349.45L144.05064 349.45ZM152.56627 348.6844Q151.97252 349.1844 151.42564 349.3875Q150.8944 349.59064 150.2694 349.59064Q149.23814 349.59064 148.69127 349.09064Q148.1444 348.59064 148.1444 347.8094Q148.1444 347.35626 148.34752 346.98126Q148.55064 346.59064 148.8944 346.3719Q149.23814 346.1375 149.66002 346.02814Q149.9569 345.9344 150.59752 345.85626Q151.86314 345.71564 152.47252 345.4969Q152.47252 345.27814 152.47252 345.23126Q152.47252 344.575 152.17564 344.3094Q151.7694 343.96564 150.97252 343.96564Q150.23814 343.96564 149.87877 344.23126Q149.5194 344.48126 149.34752 345.1375L148.31627 344.9969Q148.4569 344.34064 148.78502 343.9344Q149.11314 343.52814 149.72252 343.3094Q150.3319 343.09064 151.12877 343.09064Q151.92564 343.09064 152.42564 343.27814Q152.92564 343.46564 153.16002 343.7469Q153.3944 344.02814 153.48814 344.46564Q153.53502 344.73126 153.53502 345.4344L153.53502 346.84064Q153.53502 348.3094 153.59752 348.7Q153.67564 349.09064 153.87877 349.45L152.7694 349.45Q152.61314 349.1219 152.56627 348.6844ZM152.47252 346.325Q151.8944 346.5594 150.75377 346.73126Q150.09752 346.825 149.8319 346.95Q149.56627 347.0594 149.41002 347.27814Q149.2694 347.4969 149.2694 347.77814Q149.2694 348.2 149.5819 348.48126Q149.91002 348.7625 150.5194 348.7625Q151.12877 348.7625 151.59752 348.4969Q152.0819 348.23126 152.30064 347.7625Q152.47252 347.40314 152.47252 346.71564L152.47252 346.325ZM155.50377 349.45L155.50377 340.85626L156.56627 340.85626L156.56627 345.7625L159.05064 343.23126L160.42564 343.23126L158.03502 345.52814L160.66002 349.45L159.36314 349.45L157.30064 346.2625L156.56627 346.98126L156.56627 349.45L155.50377 349.45ZM161.50377 342.075L161.50377 340.85626L162.56627 340.85626L162.56627 342.075L161.50377 342.075ZM161.50377 349.45L161.50377 343.23126L162.56627 343.23126L162.56627 349.45L161.50377 349.45ZM165.47252 349.45L164.48814 349.45L164.48814 340.85626L165.55064 340.85626L165.55064 343.91876Q166.22252 343.09064 167.25377 343.09064Q167.8319 343.09064 168.3319 343.325Q168.84752 343.54376 169.17564 343.96564Q169.5194 344.3875 169.7069 344.98126Q169.8944 345.575 169.8944 346.2469Q169.8944 347.84064 169.09752 348.71564Q168.30064 349.59064 167.2069 349.59064Q166.09752 349.59064 165.47252 348.66876L165.47252 349.45ZM165.4569 346.29376Q165.4569 347.40314 165.7694 347.90314Q166.2694 348.71564 167.11314 348.71564Q167.80064 348.71564 168.30064 348.1219Q168.81627 347.52814 168.81627 346.325Q168.81627 345.10626 168.3319 344.52814Q167.84752 343.95 167.16002 343.95Q166.47252 343.95 165.9569 344.5594Q165.4569 345.15314 165.4569 346.29376ZM175.75377 347.45L176.84752 347.575Q176.59752 348.52814 175.8944 349.0594Q175.19127 349.59064 174.11314 349.59064Q172.75377 349.59064 171.94127 348.7469Q171.1444 347.90314 171.1444 346.3875Q171.1444 344.825 171.9569 343.96564Q172.7694 343.09064 174.05064 343.09064Q175.30064 343.09064 176.0819 343.9344Q176.87877 344.77814 176.87877 346.325Q176.87877 346.41876 176.87877 346.60626L172.23814 346.60626Q172.30064 347.6375 172.81627 348.1844Q173.3319 348.71564 174.11314 348.71564Q174.69127 348.71564 175.09752 348.41876Q175.5194 348.10626 175.75377 347.45ZM172.30064 345.7469L175.7694 345.7469Q175.7069 344.95 175.37877 344.5594Q174.86314 343.95 174.06627 343.95Q173.3319 343.95 172.8319 344.4344Q172.34752 344.91876 172.30064 345.7469ZM178.50377 349.45L178.50377 343.23126L179.44127 343.23126L179.44127 344.10626Q180.12877 343.09064 181.42564 343.09064Q181.98814 343.09064 182.4569 343.29376Q182.94127 343.4969 183.17564 343.825Q183.41002 344.15314 183.50377 344.59064Q183.55064 344.8875 183.55064 345.6219L183.55064 349.45L182.50377 349.45L182.50377 345.66876Q182.50377 345.0125 182.37877 344.7Q182.25377 344.3875 181.94127 344.2Q181.62877 343.9969 181.2069 343.9969Q180.53502 343.9969 180.03502 344.4344Q179.55064 344.85626 179.55064 346.04376L179.55064 349.45L178.50377 349.45ZM186.19127 351.98126L185.44127 351.98126Q187.19127 349.16876 187.19127 346.34064Q187.19127 345.2469 186.94127 344.15314Q186.73814 343.27814 186.37877 342.46564Q186.1444 341.95 185.44127 340.71564L186.19127 340.71564Q187.28502 342.1844 187.81627 343.66876Q188.2694 344.95 188.2694 346.34064Q188.2694 347.91876 187.66002 349.40314Q187.05064 350.8719 186.19127 351.98126Z" fill-rule="nonzero"/><path fill="#000000" d="M230.9648 340.85626L232.10542 340.85626L232.10542 345.825Q232.10542 347.1219 231.80855 347.8875Q231.51167 348.6375 230.74605 349.1219Q229.98042 349.59064 228.74605 349.59064Q227.54292 349.59064 226.76167 349.1844Q225.99605 348.7625 225.66792 347.98126Q225.3398 347.1844 225.3398 345.825L225.3398 340.85626L226.48042 340.85626L226.48042 345.8094Q226.48042 346.9344 226.68355 347.46564Q226.9023 347.9969 227.4023 348.29376Q227.91792 348.575 228.6523 348.575Q229.9023 348.575 230.43355 348.0125Q230.9648 347.4344 230.9648 345.8094L230.9648 340.85626ZM235.16792 349.45L234.18355 349.45L234.18355 340.85626L235.24605 340.85626L235.24605 343.91876Q235.91792 343.09064 236.94917 343.09064Q237.5273 343.09064 238.0273 343.325Q238.54292 343.54376 238.87105 343.96564Q239.2148 344.3875 239.4023 344.98126Q239.5898 345.575 239.5898 346.2469Q239.5898 347.84064 238.79292 348.71564Q237.99605 349.59064 236.9023 349.59064Q235.79292 349.59064 235.16792 348.66876L235.16792 349.45ZM235.1523 346.29376Q235.1523 347.40314 235.4648 347.90314Q235.9648 348.71564 236.80855 348.71564Q237.49605 348.71564 237.99605 348.1219Q238.51167 347.52814 238.51167 346.325Q238.51167 345.10626 238.0273 344.52814Q237.54292 343.95 236.85542 343.95Q236.16792 343.95 235.6523 344.5594Q235.1523 345.15314 235.1523 346.29376ZM245.44917 347.45L246.54292 347.575Q246.29292 348.52814 245.5898 349.0594Q244.88667 349.59064 243.80855 349.59064Q242.44917 349.59064 241.63667 348.7469Q240.8398 347.90314 240.8398 346.3875Q240.8398 344.825 241.6523 343.96564Q242.4648 343.09064 243.74605 343.09064Q244.99605 343.09064 245.7773 343.9344Q246.57417 344.77814 246.57417 346.325Q246.57417 346.41876 246.57417 346.60626L241.93355 346.60626Q241.99605 347.6375 242.51167 348.1844Q243.0273 348.71564 243.80855 348.71564Q244.38667 348.71564 244.79292 348.41876Q245.2148 348.10626 245.44917 347.45ZM241.99605 345.7469L245.4648 345.7469Q245.4023 344.95 245.07417 344.5594Q244.55855 343.95 243.76167 343.95Q243.0273 343.95 242.5273 344.4344Q242.04292 344.91876 241.99605 345.7469ZM248.18355 349.45L248.18355 343.23126L249.13667 343.23126L249.13667 344.16876Q249.49605 343.5125 249.79292 343.3094Q250.10542 343.09064 250.48042 343.09064Q251.01167 343.09064 251.55855 343.41876L251.19917 344.40314Q250.80855 344.16876 250.43355 344.16876Q250.07417 344.16876 249.79292 344.3875Q249.5273 344.59064 249.41792 344.96564Q249.23042 345.52814 249.23042 346.1844L249.23042 349.45L248.18355 349.45ZM255.35542 349.45L255.35542 340.85626L261.55853 340.85626L261.55853 341.8719L256.49603 341.8719L256.49603 344.4969L261.24603 344.4969L261.24603 345.5125L256.49603 345.5125L256.49603 348.4344L261.76166 348.4344L261.76166 349.45L255.35542 349.45ZM267.26166 348.6844Q266.6679 349.1844 266.12103 349.3875Q265.58978 349.59064 264.96478 349.59064Q263.93353 349.59064 263.38666 349.09064Q262.83978 348.59064 262.83978 347.8094Q262.83978 347.35626 263.0429 346.98126Q263.24603 346.59064 263.58978 346.3719Q263.93353 346.1375 264.3554 346.02814Q264.65228 345.9344 265.2929 345.85626Q266.55853 345.71564 267.1679 345.4969Q267.1679 345.27814 267.1679 345.23126Q267.1679 344.575 266.87103 344.3094Q266.46478 343.96564 265.6679 343.96564Q264.93353 343.96564 264.57416 344.23126Q264.21478 344.48126 264.0429 345.1375L263.01166 344.9969Q263.15228 344.34064 263.4804 343.9344Q263.80853 343.52814 264.4179 343.3094Q265.02728 343.09064 265.82416 343.09064Q266.62103 343.09064 267.12103 343.27814Q267.62103 343.46564 267.8554 343.7469Q268.08978 344.02814 268.18353 344.46564Q268.2304 344.73126 268.2304 345.4344L268.2304 346.84064Q268.2304 348.3094 268.2929 348.7Q268.37103 349.09064 268.57416 349.45L267.46478 349.45Q267.30853 349.1219 267.26166 348.6844ZM267.1679 346.325Q266.58978 346.5594 265.44916 346.73126Q264.7929 346.825 264.52728 346.95Q264.26166 347.0594 264.1054 347.27814Q263.96478 347.4969 263.96478 347.77814Q263.96478 348.2 264.27728 348.48126Q264.6054 348.7625 265.21478 348.7625Q265.82416 348.7625 266.2929 348.4969Q266.77728 348.23126 266.99603 347.7625Q267.1679 347.40314 267.1679 346.71564L267.1679 346.325ZM272.49603 348.5125L272.65228 349.4344Q272.19916 349.52814 271.8554 349.52814Q271.27728 349.52814 270.96478 349.35626Q270.65228 349.16876 270.51166 348.8719Q270.38666 348.575 270.38666 347.6219L270.38666 344.04376L269.62103 344.04376L269.62103 343.23126L270.38666 343.23126L270.38666 341.6844L271.43353 341.0594L271.43353 343.23126L272.49603 343.23126L272.49603 344.04376L271.43353 344.04376L271.43353 347.6844Q271.43353 348.1375 271.4804 348.2625Q271.5429 348.3875 271.6679 348.46564Q271.7929 348.54376 272.02728 348.54376Q272.21478 348.54376 272.49603 348.5125ZM272.77728 347.59064L273.80853 347.4344Q273.90228 348.0594 274.2929 348.3875Q274.69916 348.71564 275.43353 348.71564Q276.15228 348.71564 276.49603 348.4344Q276.8554 348.1375 276.8554 347.73126Q276.8554 347.3719 276.5429 347.16876Q276.32416 347.02814 275.46478 346.8094Q274.30853 346.5125 273.8554 346.3094Q273.4179 346.09064 273.18353 345.71564Q272.94916 345.34064 272.94916 344.8719Q272.94916 344.46564 273.13666 344.10626Q273.32416 343.7469 273.65228 343.5125Q273.90228 343.34064 274.32416 343.21564Q274.74603 343.09064 275.24603 343.09064Q275.96478 343.09064 276.51166 343.3094Q277.07416 343.5125 277.33978 343.8719Q277.6054 344.23126 277.69916 344.825L276.6679 344.96564Q276.6054 344.4969 276.26166 344.23126Q275.93353 343.95 275.30853 343.95Q274.58978 343.95 274.27728 344.2Q273.96478 344.4344 273.96478 344.7625Q273.96478 344.96564 274.08978 345.1219Q274.2304 345.29376 274.49603 345.40314Q274.65228 345.46564 275.43353 345.66876Q276.55853 345.98126 276.99603 346.16876Q277.43353 346.35626 277.68353 346.71564Q277.93353 347.075 277.93353 347.6219Q277.93353 348.15314 277.62103 348.6219Q277.32416 349.075 276.74603 349.34064Q276.1679 349.59064 275.43353 349.59064Q274.21478 349.59064 273.57416 349.09064Q272.94916 348.575 272.77728 347.59064Z" fill-rule="nonzero"/><path fill="#000000" d="M345.51956 349.45L345.51956 340.85626L348.4883 340.85626Q349.4883 340.85626 350.01956 340.98126Q350.75394 341.15314 351.26956 341.59064Q351.95706 342.16876 352.2852 343.075Q352.62894 343.96564 352.62894 345.10626Q352.62894 346.09064 352.39456 346.84064Q352.1758 347.59064 351.81644 348.09064Q351.45706 348.59064 351.01956 348.8719Q350.5977 349.15314 350.00394 349.3094Q349.4102 349.45 348.62894 349.45L345.51956 349.45ZM346.6602 348.4344L348.4883 348.4344Q349.3477 348.4344 349.83206 348.27814Q350.31644 348.1219 350.5977 347.825Q351.00394 347.4344 351.2227 346.7469Q351.45706 346.0594 351.45706 345.09064Q351.45706 343.7469 351.00394 343.02814Q350.56644 342.29376 349.94144 342.04376Q349.4727 341.8719 348.4727 341.8719L346.6602 341.8719L346.6602 348.4344ZM358.64456 347.45L359.7383 347.575Q359.4883 348.52814 358.7852 349.0594Q358.08206 349.59064 357.00394 349.59064Q355.64456 349.59064 354.83206 348.7469Q354.0352 347.90314 354.0352 346.3875Q354.0352 344.825 354.8477 343.96564Q355.6602 343.09064 356.94144 343.09064Q358.19144 343.09064 358.9727 343.9344Q359.76956 344.77814 359.76956 346.325Q359.76956 346.41876 359.76956 346.60626L355.12894 346.60626Q355.19144 347.6375 355.70706 348.1844Q356.2227 348.71564 357.00394 348.71564Q357.58206 348.71564 357.9883 348.41876Q358.4102 348.10626 358.64456 347.45ZM355.19144 345.7469L358.6602 345.7469Q358.5977 344.95 358.26956 344.5594Q357.75394 343.95 356.95706 343.95Q356.2227 343.95 355.7227 344.4344Q355.2383 344.91876 355.19144 345.7469ZM361.39456 349.45L361.39456 343.23126L362.33206 343.23126L362.33206 344.10626Q362.62894 343.6375 363.1133 343.3719Q363.5977 343.09064 364.2227 343.09064Q364.9102 343.09064 365.3477 343.3719Q365.8008 343.65314 365.9727 344.16876Q366.7227 343.09064 367.89456 343.09064Q368.83206 343.09064 369.31644 343.60626Q369.81644 344.10626 369.81644 345.1844L369.81644 349.45L368.76956 349.45L368.76956 345.52814Q368.76956 344.90314 368.6602 344.6219Q368.56644 344.34064 368.3008 344.16876Q368.0352 343.9969 367.6602 343.9969Q367.00394 343.9969 366.56644 344.4344Q366.14456 344.8719 366.14456 345.84064L366.14456 349.45L365.08206 349.45L365.08206 345.40314Q365.08206 344.7 364.81644 344.35626Q364.56644 343.9969 363.9883 343.9969Q363.5352 343.9969 363.1602 344.23126Q362.7852 344.46564 362.6133 344.91876Q362.44144 345.3719 362.44144 346.21564L362.44144 349.45L361.39456 349.45ZM376.45706 348.6844Q375.8633 349.1844 375.31644 349.3875Q374.7852 349.59064 374.1602 349.59064Q373.12894 349.59064 372.58206 349.09064Q372.0352 348.59064 372.0352 347.8094Q372.0352 347.35626 372.2383 346.98126Q372.44144 346.59064 372.7852 346.3719Q373.12894 346.1375 373.5508 346.02814Q373.8477 345.9344 374.4883 345.85626Q375.75394 345.71564 376.3633 345.4969Q376.3633 345.27814 376.3633 345.23126Q376.3633 344.575 376.06644 344.3094Q375.6602 343.96564 374.8633 343.96564Q374.12894 343.96564 373.76956 344.23126Q373.4102 344.48126 373.2383 345.1375L372.20706 344.9969Q372.3477 344.34064 372.6758 343.9344Q373.00394 343.52814 373.6133 343.3094Q374.2227 343.09064 375.01956 343.09064Q375.81644 343.09064 376.31644 343.27814Q376.81644 343.46564 377.0508 343.7469Q377.2852 344.02814 377.37894 344.46564Q377.4258 344.73126 377.4258 345.4344L377.4258 346.84064Q377.4258 348.3094 377.4883 348.7Q377.56644 349.09064 377.76956 349.45L376.6602 349.45Q376.50394 349.1219 376.45706 348.6844ZM376.3633 346.325Q375.7852 346.5594 374.64456 346.73126Q373.9883 346.825 373.7227 346.95Q373.45706 347.0594 373.3008 347.27814Q373.1602 347.4969 373.1602 347.77814Q373.1602 348.2 373.4727 348.48126Q373.8008 348.7625 374.4102 348.7625Q375.01956 348.7625 375.4883 348.4969Q375.9727 348.23126 376.19144 347.7625Q376.3633 347.40314 376.3633 346.71564L376.3633 346.325ZM383.64456 347.45L384.7383 347.575Q384.4883 348.52814 383.7852 349.0594Q383.08206 349.59064 382.00394 349.59064Q380.64456 349.59064 379.83206 348.7469Q379.0352 347.90314 379.0352 346.3875Q379.0352 344.825 379.8477 343.96564Q380.6602 343.09064 381.94144 343.09064Q383.19144 343.09064 383.9727 343.9344Q384.76956 344.77814 384.76956 346.325Q384.76956 346.41876 384.76956 346.60626L380.12894 346.60626Q380.19144 347.6375 380.70706 348.1844Q381.2227 348.71564 382.00394 348.71564Q382.58206 348.71564 382.9883 348.41876Q383.4102 348.10626 383.64456 347.45ZM380.19144 345.7469L383.6602 345.7469Q383.5977 344.95 383.26956 344.5594Q382.75394 343.95 381.95706 343.95Q381.2227 343.95 380.7227 344.4344Q380.2383 344.91876 380.19144 345.7469ZM390.45706 347.16876L391.4883 347.3094Q391.31644 348.3719 390.6133 348.98126Q389.9102 349.59064 388.89456 349.59064Q387.6133 349.59064 386.83206 348.7625Q386.06644 347.91876 386.06644 346.35626Q386.06644 345.35626 386.39456 344.60626Q386.7383 343.84064 387.4102 343.46564Q388.0977 343.09064 388.9102 343.09064Q389.9102 343.09064 390.5508 343.60626Q391.20706 344.10626 391.39456 345.0594L390.3633 345.21564Q390.2227 344.59064 389.8477 344.27814Q389.4727 343.95 388.94144 343.95Q388.14456 343.95 387.64456 344.52814Q387.14456 345.09064 387.14456 346.325Q387.14456 347.59064 387.62894 348.15314Q388.1133 348.71564 388.87894 348.71564Q389.50394 348.71564 389.9102 348.34064Q390.33206 347.96564 390.45706 347.16876ZM396.45706 348.6844Q395.8633 349.1844 395.31644 349.3875Q394.7852 349.59064 394.1602 349.59064Q393.12894 349.59064 392.58206 349.09064Q392.0352 348.59064 392.0352 347.8094Q392.0352 347.35626 392.2383 346.98126Q392.44144 346.59064 392.7852 346.3719Q393.12894 346.1375 393.5508 346.02814Q393.8477 345.9344 394.4883 345.85626Q395.75394 345.71564 396.3633 345.4969Q396.3633 345.27814 396.3633 345.23126Q396.3633 344.575 396.06644 344.3094Q395.6602 343.96564 394.8633 343.96564Q394.12894 343.96564 393.76956 344.23126Q393.4102 344.48126 393.2383 345.1375L392.20706 344.9969Q392.3477 344.34064 392.6758 343.9344Q393.00394 343.52814 393.6133 343.3094Q394.2227 343.09064 395.01956 343.09064Q395.81644 343.09064 396.31644 343.27814Q396.81644 343.46564 397.0508 343.7469Q397.2852 344.02814 397.37894 344.46564Q397.4258 344.73126 397.4258 345.4344L397.4258 346.84064Q397.4258 348.3094 397.4883 348.7Q397.56644 349.09064 397.76956 349.45L396.6602 349.45Q396.50394 349.1219 396.45706 348.6844ZM396.3633 346.325Q395.7852 346.5594 394.64456 346.73126Q393.9883 346.825 393.7227 346.95Q393.45706 347.0594 393.3008 347.27814Q393.1602 347.4969 393.1602 347.77814Q393.1602 348.2 393.4727 348.48126Q393.8008 348.7625 394.4102 348.7625Q395.01956 348.7625 395.4883 348.4969Q395.9727 348.23126 396.19144 347.7625Q396.3633 347.40314 396.3633 346.71564L396.3633 346.325ZM399.39456 349.45L399.39456 343.23126L400.33206 343.23126L400.33206 344.10626Q401.01956 343.09064 402.31644 343.09064Q402.87894 343.09064 403.3477 343.29376Q403.83206 343.4969 404.06644 343.825Q404.3008 344.15314 404.39456 344.59064Q404.44144 344.8875 404.44144 345.6219L404.44144 349.45L403.39456 349.45L403.39456 345.66876Q403.39456 345.0125 403.26956 344.7Q403.14456 344.3875 402.83206 344.2Q402.51956 343.9969 402.0977 343.9969Q401.4258 343.9969 400.9258 344.4344Q400.44144 344.85626 400.44144 346.04376L400.44144 349.45L399.39456 349.45Z" fill-rule="nonzero"/><path fill="#000000" d="M488.71497 349.45L486.43372 340.85626L487.6056 340.85626L488.9181 346.4969Q489.12122 347.3719 489.27747 348.2469Q489.6056 346.8719 489.6681 346.65314L491.2931 340.85626L492.6681 340.85626L493.90247 345.2Q494.3556 346.825 494.57434 348.2469Q494.7306 347.4344 494.99622 346.3719L496.33997 340.85626L497.4806 340.85626L495.13684 349.45L494.02747 349.45L492.2306 342.90314Q491.99622 342.09064 491.94934 341.90314Q491.82434 342.48126 491.69934 342.90314L489.88684 349.45L488.71497 349.45ZM497.69934 346.34064Q497.69934 344.60626 498.65247 343.77814Q499.44934 343.09064 500.6056 343.09064Q501.88684 343.09064 502.69934 343.9344Q503.52747 344.7625 503.52747 346.2469Q503.52747 347.45 503.1681 348.1375Q502.80872 348.825 502.1056 349.21564Q501.4181 349.59064 500.6056 349.59064Q499.30872 349.59064 498.49622 348.7625Q497.69934 347.91876 497.69934 346.34064ZM498.77747 346.34064Q498.77747 347.52814 499.2931 348.1219Q499.82434 348.71564 500.6056 348.71564Q501.40247 348.71564 501.9181 348.1219Q502.43372 347.52814 502.43372 346.3094Q502.43372 345.15314 501.90247 344.5594Q501.38684 343.96564 500.6056 343.96564Q499.82434 343.96564 499.2931 344.5594Q498.77747 345.1375 498.77747 346.34064ZM505.05872 349.45L505.05872 340.85626L506.12122 340.85626L506.12122 349.45L505.05872 349.45ZM510.38684 348.5125L510.5431 349.4344Q510.08997 349.52814 509.74622 349.52814Q509.1681 349.52814 508.8556 349.35626Q508.5431 349.16876 508.40247 348.8719Q508.27747 348.575 508.27747 347.6219L508.27747 344.04376L507.51184 344.04376L507.51184 343.23126L508.27747 343.23126L508.27747 341.6844L509.32434 341.0594L509.32434 343.23126L510.38684 343.23126L510.38684 344.04376L509.32434 344.04376L509.32434 347.6844Q509.32434 348.1375 509.37122 348.2625Q509.43372 348.3875 509.55872 348.46564Q509.68372 348.54376 509.9181 348.54376Q510.1056 348.54376 510.38684 348.5125Z" fill-rule="nonzero"/><path fill="#ffd966" d="M126.5 20.55C126.5 19.997715 126.947716 19.55 127.5 19.55L137.5 19.55C138.05229 19.55 138.5 19.997715 138.5 20.55L138.5 30.55C138.5 31.102285 138.05229 31.55 137.5 31.55L127.5 31.55C126.947716 31.55 126.5 31.102285 126.5 30.55Z" fill-rule="nonzero"/><path fill="#1a1a1a" d="M147.07812 25.3625Q147.07812 23.221874 148.21875 22.01875Q149.375 20.8 151.1875 20.8Q152.39062 20.8 153.34375 21.378124Q154.29688 21.940624 154.79688 22.95625Q155.29688 23.971874 155.29688 25.26875Q155.29688 26.565624 154.76562 27.596874Q154.23438 28.628124 153.26562 29.159374Q152.3125 29.690624 151.1875 29.690624Q149.96875 29.690624 149.01562 29.1125Q148.0625 28.51875 147.5625 27.51875Q147.07812 26.503124 147.07812 25.3625ZM148.25 25.378124Q148.25 26.940624 149.07812 27.83125Q149.92188 28.721874 151.1875 28.721874Q152.46875 28.721874 153.29688 27.83125Q154.125 26.925 154.125 25.253124Q154.125 24.20625 153.76562 23.425Q153.42188 22.64375 152.73438 22.221874Q152.04688 21.784374 151.20312 21.784374Q150.0 21.784374 149.125 22.6125Q148.25 23.440624 148.25 25.378124ZM158.59375 28.6125L158.75 29.534374Q158.29688 29.628124 157.95312 29.628124Q157.375 29.628124 157.0625 29.45625Q156.75 29.26875 156.60938 28.971874Q156.48438 28.675 156.48438 27.721874L156.48438 24.14375L155.71875 24.14375L155.71875 23.33125L156.48438 23.33125L156.48438 21.784374L157.53125 21.159374L157.53125 23.33125L158.59375 23.33125L158.59375 24.14375L157.53125 24.14375L157.53125 27.784374Q157.53125 28.2375 157.57812 28.3625Q157.64062 28.4875 157.76562 28.565624Q157.89062 28.64375 158.125 28.64375Q158.3125 28.64375 158.59375 28.6125ZM159.29688 29.55L159.29688 20.95625L160.34375 20.95625L160.34375 24.034374Q161.07812 23.190624 162.20312 23.190624Q162.90625 23.190624 163.40625 23.471874Q163.92188 23.7375 164.14062 24.221874Q164.35938 24.690624 164.35938 25.6125L164.35938 29.55L163.3125 29.55L163.3125 25.6125Q163.3125 24.815624 162.96875 24.45625Q162.625 24.096874 162.0 24.096874Q161.53125 24.096874 161.10938 24.346874Q160.70312 24.58125 160.51562 25.003124Q160.34375 25.409374 160.34375 26.14375L160.34375 29.55L159.29688 29.55ZM170.54688 27.55L171.64062 27.675Q171.39062 28.628124 170.6875 29.159374Q169.98438 29.690624 168.90625 29.690624Q167.54688 29.690624 166.73438 28.846874Q165.9375 28.003124 165.9375 26.4875Q165.9375 24.925 166.75 24.065624Q167.5625 23.190624 168.84375 23.190624Q170.09375 23.190624 170.875 24.034374Q171.67188 24.878124 171.67188 26.425Q171.67188 26.51875 171.67188 26.70625L167.03125 26.70625Q167.09375 27.7375 167.60938 28.284374Q168.125 28.815624 168.90625 28.815624Q169.48438 28.815624 169.89062 28.51875Q170.3125 28.20625 170.54688 27.55ZM167.09375 25.846874L170.5625 25.846874Q170.5 25.05 170.17188 24.659374Q169.65625 24.05 168.85938 24.05Q168.125 24.05 167.625 24.534374Q167.14062 25.01875 167.09375 25.846874ZM173.28125 29.55L173.28125 23.33125L174.23438 23.33125L174.23438 24.26875Q174.59375 23.6125 174.89062 23.409374Q175.20312 23.190624 175.57812 23.190624Q176.10938 23.190624 176.65625 23.51875L176.29688 24.503124Q175.90625 24.26875 175.53125 24.26875Q175.17188 24.26875 174.89062 24.4875Q174.625 24.690624 174.51562 25.065624Q174.32812 25.628124 174.32812 26.284374L174.32812 29.55L173.28125 29.55ZM186.5625 26.534374L187.6875 26.83125Q187.32812 28.221874 186.40625 28.95625Q185.48438 29.690624 184.14062 29.690624Q182.75 29.690624 181.875 29.128124Q181.0 28.565624 180.54688 27.503124Q180.09375 26.425 180.09375 25.190624Q180.09375 23.846874 180.60938 22.846874Q181.125 21.846874 182.0625 21.33125Q183.01562 20.815624 184.15625 20.815624Q185.4375 20.815624 186.3125 21.471874Q187.20312 22.128124 187.54688 23.315624L186.42188 23.58125Q186.125 22.64375 185.54688 22.221874Q184.98438 21.784374 184.125 21.784374Q183.14062 21.784374 182.46875 22.26875Q181.8125 22.7375 181.53125 23.534374Q181.26562 24.33125 181.26562 25.190624Q181.26562 26.284374 181.57812 27.096874Q181.90625 27.909374 182.57812 28.315624Q183.25 28.721874 184.04688 28.721874Q185.0 28.721874 185.65625 28.175Q186.32812 27.628124 186.5625 26.534374ZM188.90625 26.440624Q188.90625 24.70625 189.85938 23.878124Q190.65625 23.190624 191.8125 23.190624Q193.09375 23.190624 193.90625 24.034374Q194.73438 24.8625 194.73438 26.346874Q194.73438 27.55 194.375 28.2375Q194.01562 28.925 193.3125 29.315624Q192.625 29.690624 191.8125 29.690624Q190.51562 29.690624 189.70312 28.8625Q188.90625 28.01875 188.90625 26.440624ZM189.98438 26.440624Q189.98438 27.628124 190.5 28.221874Q191.03125 28.815624 191.8125 28.815624Q192.60938 28.815624 193.125 28.221874Q193.64062 27.628124 193.64062 26.409374Q193.64062 25.253124 193.10938 24.659374Q192.59375 24.065624 191.8125 24.065624Q191.03125 24.065624 190.5 24.659374Q189.98438 25.2375 189.98438 26.440624ZM195.875 27.690624L196.90625 27.534374Q197.0 28.159374 197.39062 28.4875Q197.79688 28.815624 198.53125 28.815624Q199.25 28.815624 199.59375 28.534374Q199.95312 28.2375 199.95312 27.83125Q199.95312 27.471874 199.64062 27.26875Q199.42188 27.128124 198.5625 26.909374Q197.40625 26.6125 196.95312 26.409374Q196.51562 26.190624 196.28125 25.815624Q196.04688 25.440624 196.04688 24.971874Q196.04688 24.565624 196.23438 24.20625Q196.42188 23.846874 196.75 23.6125Q197.0 23.440624 197.42188 23.315624Q197.84375 23.190624 198.34375 23.190624Q199.0625 23.190624 199.60938 23.409374Q200.17188 23.6125 200.4375 23.971874Q200.70312 24.33125 200.79688 24.925L199.76562 25.065624Q199.70312 24.596874 199.35938 24.33125Q199.03125 24.05 198.40625 24.05Q197.6875 24.05 197.375 24.3Q197.0625 24.534374 197.0625 24.8625Q197.0625 25.065624 197.1875 25.221874Q197.32812 25.39375 197.59375 25.503124Q197.75 25.565624 198.53125 25.76875Q199.65625 26.08125 200.09375 26.26875Q200.53125 26.45625 200.78125 26.815624Q201.03125 27.175 201.03125 27.721874Q201.03125 28.253124 200.71875 28.721874Q200.42188 29.175 199.84375 29.440624Q199.26562 29.690624 198.53125 29.690624Q197.3125 29.690624 196.67188 29.190624Q196.04688 28.675 195.875 27.690624ZM205.59375 28.6125L205.75 29.534374Q205.29688 29.628124 204.95312 29.628124Q204.375 29.628124 204.0625 29.45625Q203.75 29.26875 203.60938 28.971874Q203.48438 28.675 203.48438 27.721874L203.48438 24.14375L202.71875 24.14375L202.71875 23.33125L203.48438 23.33125L203.48438 21.784374L204.53125 21.159374L204.53125 23.33125L205.59375 23.33125L205.59375 24.14375L204.53125 24.14375L204.53125 27.784374Q204.53125 28.2375 204.57812 28.3625Q204.64062 28.4875 204.76562 28.565624Q204.89062 28.64375 205.125 28.64375Q205.3125 28.64375 205.59375 28.6125ZM211.3125 32.08125Q210.4375 30.971874 209.82812 29.503124Q209.23438 28.01875 209.23438 26.440624Q209.23438 25.05 209.67188 23.76875Q210.20312 22.284374 211.3125 20.815624L212.0625 20.815624Q211.35938 22.034374 211.125 22.55Q210.76562 23.3625 210.5625 24.2375Q210.3125 25.33125 210.3125 26.440624Q210.3125 29.26875 212.0625 32.08125L211.3125 32.08125ZM213.48438 29.55L213.48438 20.95625L219.28125 20.95625L219.28125 21.971874L214.625 21.971874L214.625 24.628124L218.65625 24.628124L218.65625 25.64375L214.625 25.64375L214.625 29.55L213.48438 29.55ZM224.54688 27.55L225.64062 27.675Q225.39062 28.628124 224.6875 29.159374Q223.98438 29.690624 222.90625 29.690624Q221.54688 29.690624 220.73438 28.846874Q219.9375 28.003124 219.9375 26.4875Q219.9375 24.925 220.75 24.065624Q221.5625 23.190624 222.84375 23.190624Q224.09375 23.190624 224.875 24.034374Q225.67188 24.878124 225.67188 26.425Q225.67188 26.51875 225.67188 26.70625L221.03125 26.70625Q221.09375 27.7375 221.60938 28.284374Q222.125 28.815624 222.90625 28.815624Q223.48438 28.815624 223.89062 28.51875Q224.3125 28.20625 224.54688 27.55ZM221.09375 25.846874L224.5625 25.846874Q224.5 25.05 224.17188 24.659374Q223.65625 24.05 222.85938 24.05Q222.125 24.05 221.625 24.534374Q221.14062 25.01875 221.09375 25.846874ZM231.54688 27.55L232.64062 27.675Q232.39062 28.628124 231.6875 29.159374Q230.98438 29.690624 229.90625 29.690624Q228.54688 29.690624 227.73438 28.846874Q226.9375 28.003124 226.9375 26.4875Q226.9375 24.925 227.75 24.065624Q228.5625 23.190624 229.84375 23.190624Q231.09375 23.190624 231.875 24.034374Q232.67188 24.878124 232.67188 26.425Q232.67188 26.51875 232.67188 26.70625L228.03125 26.70625Q228.09375 27.7375 228.60938 28.284374Q229.125 28.815624 229.90625 28.815624Q230.48438 28.815624 230.89062 28.51875Q231.3125 28.20625 231.54688 27.55ZM228.09375 25.846874L231.5625 25.846874Q231.5 25.05 231.17188 24.659374Q230.65625 24.05 229.85938 24.05Q229.125 24.05 228.625 24.534374Q228.14062 25.01875 228.09375 25.846874ZM233.875 27.690624L234.90625 27.534374Q235.0 28.159374 235.39062 28.4875Q235.79688 28.815624 236.53125 28.815624Q237.25 28.815624 237.59375 28.534374Q237.95312 28.2375 237.95312 27.83125Q237.95312 27.471874 237.64062 27.26875Q237.42188 27.128124 236.5625 26.909374Q235.40625 26.6125 234.95312 26.409374Q234.51562 26.190624 234.28125 25.815624Q234.04688 25.440624 234.04688 24.971874Q234.04688 24.565624 234.23438 24.20625Q234.42188 23.846874 234.75 23.6125Q235.0 23.440624 235.42188 23.315624Q235.84375 23.190624 236.34375 23.190624Q237.0625 23.190624 237.60938 23.409374Q238.17188 23.6125 238.4375 23.971874Q238.70312 24.33125 238.79688 24.925L237.76562 25.065624Q237.70312 24.596874 237.35938 24.33125Q237.03125 24.05 236.40625 24.05Q235.6875 24.05 235.375 24.3Q235.0625 24.534374 235.0625 24.8625Q235.0625 25.065624 235.1875 25.221874Q235.32812 25.39375 235.59375 25.503124Q235.75 25.565624 236.53125 25.76875Q237.65625 26.08125 238.09375 26.26875Q238.53125 26.45625 238.78125 26.815624Q239.03125 27.175 239.03125 27.721874Q239.03125 28.253124 238.71875 28.721874Q238.42188 29.175 237.84375 29.440624Q237.26562 29.690624 236.53125 29.690624Q235.3125 29.690624 234.67188 29.190624Q234.04688 28.675 233.875 27.690624ZM249.20312 28.534374Q248.6875 29.1125 248.0625 29.409374Q247.45312 29.690624 246.73438 29.690624Q245.42188 29.690624 244.64062 28.8Q244.01562 28.08125 244.01562 27.175Q244.01562 26.378124 244.53125 25.7375Q245.04688 25.096874 246.0625 24.6125Q245.48438 23.940624 245.28125 23.534374Q245.09375 23.1125 245.09375 22.721874Q245.09375 21.95625 245.70312 21.39375Q246.3125 20.815624 247.23438 20.815624Q248.10938 20.815624 248.65625 21.3625Q249.21875 21.89375 249.21875 22.64375Q249.21875 23.878124 247.60938 24.7375L249.14062 26.70625Q249.40625 26.190624 249.54688 25.503124L250.65625 25.7375Q250.375 26.8625 249.89062 27.596874Q250.48438 28.378124 251.23438 28.909374L250.51562 29.753124Q249.875 29.33125 249.20312 28.534374ZM247.0625 24.065624Q247.75 23.659374 247.9375 23.3625Q248.14062 23.05 248.14062 22.675Q248.14062 22.2375 247.85938 21.95625Q247.59375 21.675 247.17188 21.675Q246.75 21.675 246.45312 21.95625Q246.17188 22.2375 246.17188 22.628124Q246.17188 22.83125 246.28125 23.05Q246.39062 23.26875 246.59375 23.51875L247.0625 24.065624ZM248.54688 27.70625L246.60938 25.3Q245.75 25.815624 245.45312 26.253124Q245.15625 26.690624 245.15625 27.1125Q245.15625 27.64375 245.5625 28.20625Q245.98438 28.76875 246.75 28.76875Q247.21875 28.76875 247.71875 28.471874Q248.23438 28.175 248.54688 27.70625ZM255.39062 29.55L255.39062 20.95625L257.10938 20.95625L259.14062 27.034374Q259.42188 27.89375 259.54688 28.315624Q259.6875 27.846874 260.0 26.940624L262.0625 20.95625L263.59375 20.95625L263.59375 29.55L262.5 29.55L262.5 22.3625L260.0 29.55L258.96875 29.55L256.48438 22.2375L256.48438 29.55L255.39062 29.55ZM268.35938 28.784374Q267.76562 29.284374 267.21875 29.4875Q266.6875 29.690624 266.0625 29.690624Q265.03125 29.690624 264.48438 29.190624Q263.9375 28.690624 263.9375 27.909374Q263.9375 27.45625 264.14062 27.08125Q264.34375 26.690624 264.6875 26.471874Q265.03125 26.2375 265.45312 26.128124Q265.75 26.034374 266.39062 25.95625Q267.65625 25.815624 268.26562 25.596874Q268.26562 25.378124 268.26562 25.33125Q268.26562 24.675 267.96875 24.409374Q267.5625 24.065624 266.76562 24.065624Q266.03125 24.065624 265.67188 24.33125Q265.3125 24.58125 265.14062 25.2375L264.10938 25.096874Q264.25 24.440624 264.57812 24.034374Q264.90625 23.628124 265.51562 23.409374Q266.125 23.190624 266.92188 23.190624Q267.71875 23.190624 268.21875 23.378124Q268.71875 23.565624 268.95312 23.846874Q269.1875 24.128124 269.28125 24.565624Q269.32812 24.83125 269.32812 25.534374L269.32812 26.940624Q269.32812 28.409374 269.39062 28.8Q269.46875 29.190624 269.67188 29.55L268.5625 29.55Q268.40625 29.221874 268.35938 28.784374ZM268.26562 26.425Q267.6875 26.659374 266.54688 26.83125Q265.89062 26.925 265.625 27.05Q265.35938 27.159374 265.20312 27.378124Q265.0625 27.596874 265.0625 27.878124Q265.0625 28.3 265.375 28.58125Q265.70312 28.8625 266.3125 28.8625Q266.92188 28.8625 267.39062 28.596874Q267.875 28.33125 268.09375 27.8625Q268.26562 27.503124 268.26562 26.815624L268.26562 26.425ZM271.28125 29.55L271.28125 23.33125L272.23438 23.33125L272.23438 24.26875Q272.59375 23.6125 272.89062 23.409374Q273.20312 23.190624 273.57812 23.190624Q274.10938 23.190624 274.65625 23.51875L274.29688 24.503124Q273.90625 24.26875 273.53125 24.26875Q273.17188 24.26875 272.89062 24.4875Q272.625 24.690624 272.51562 25.065624Q272.32812 25.628124 272.32812 26.284374L272.32812 29.55L271.28125 29.55ZM275.29688 29.55L275.29688 20.95625L276.35938 20.95625L276.35938 25.8625L278.84375 23.33125L280.21875 23.33125L277.82812 25.628124L280.45312 29.55L279.15625 29.55L277.09375 26.3625L276.35938 27.08125L276.35938 29.55L275.29688 29.55ZM285.54688 27.55L286.64062 27.675Q286.39062 28.628124 285.6875 29.159374Q284.98438 29.690624 283.90625 29.690624Q282.54688 29.690624 281.73438 28.846874Q280.9375 28.003124 280.9375 26.4875Q280.9375 24.925 281.75 24.065624Q282.5625 23.190624 283.84375 23.190624Q285.09375 23.190624 285.875 24.034374Q286.67188 24.878124 286.67188 26.425Q286.67188 26.51875 286.67188 26.70625L282.03125 26.70625Q282.09375 27.7375 282.60938 28.284374Q283.125 28.815624 283.90625 28.815624Q284.48438 28.815624 284.89062 28.51875Q285.3125 28.20625 285.54688 27.55ZM282.09375 25.846874L285.5625 25.846874Q285.5 25.05 285.17188 24.659374Q284.65625 24.05 283.85938 24.05Q283.125 24.05 282.625 24.534374Q282.14062 25.01875 282.09375 25.846874ZM290.59375 28.6125L290.75 29.534374Q290.29688 29.628124 289.95312 29.628124Q289.375 29.628124 289.0625 29.45625Q288.75 29.26875 288.60938 28.971874Q288.48438 28.675 288.48438 27.721874L288.48438 24.14375L287.71875 24.14375L287.71875 23.33125L288.48438 23.33125L288.48438 21.784374L289.53125 21.159374L289.53125 23.33125L290.59375 23.33125L290.59375 24.14375L289.53125 24.14375L289.53125 27.784374Q289.53125 28.2375 289.57812 28.3625Q289.64062 28.4875 289.76562 28.565624Q289.89062 28.64375 290.125 28.64375Q290.3125 28.64375 290.59375 28.6125ZM291.29688 22.175L291.29688 20.95625L292.35938 20.95625L292.35938 22.175L291.29688 22.175ZM291.29688 29.55L291.29688 23.33125L292.35938 23.33125L292.35938 29.55L291.29688 29.55ZM294.29688 29.55L294.29688 23.33125L295.23438 23.33125L295.23438 24.20625Q295.92188 23.190624 297.21875 23.190624Q297.78125 23.190624 298.25 23.39375Q298.73438 23.596874 298.96875 23.925Q299.20312 24.253124 299.29688 24.690624Q299.34375 24.9875 299.34375 25.721874L299.34375 29.55L298.29688 29.55L298.29688 25.76875Q298.29688 25.1125 298.17188 24.8Q298.04688 24.4875 297.73438 24.3Q297.42188 24.096874 297.0 24.096874Q296.32812 24.096874 295.82812 24.534374Q295.34375 24.95625 295.34375 26.14375L295.34375 29.55L294.29688 29.55ZM301.09375 30.065624L302.125 30.221874Q302.1875 30.690624 302.48438 30.909374Q302.875 31.20625 303.54688 31.20625Q304.28125 31.20625 304.67188 30.909374Q305.07812 30.6125 305.21875 30.096874Q305.3125 29.76875 305.29688 28.7375Q304.60938 29.55 303.57812 29.55Q302.29688 29.55 301.59375 28.628124Q300.89062 27.690624 300.89062 26.409374Q300.89062 25.51875 301.20312 24.76875Q301.53125 24.003124 302.14062 23.596874Q302.75 23.190624 303.57812 23.190624Q304.6875 23.190624 305.40625 24.08125L305.40625 23.33125L306.375 23.33125L306.375 28.70625Q306.375 30.159374 306.07812 30.76875Q305.78125 31.378124 305.14062 31.721874Q304.5 32.08125 303.5625 32.08125Q302.45312 32.08125 301.76562 31.58125Q301.07812 31.08125 301.09375 30.065624ZM301.96875 26.33125Q301.96875 27.55 302.45312 28.1125Q302.9375 28.675 303.67188 28.675Q304.40625 28.675 304.89062 28.1125Q305.39062 27.55 305.39062 26.3625Q305.39062 25.221874 304.875 24.64375Q304.375 24.065624 303.65625 24.065624Q302.95312 24.065624 302.45312 24.64375Q301.96875 25.20625 301.96875 26.33125ZM308.98438 32.08125L308.23438 32.08125Q309.98438 29.26875 309.98438 26.440624Q309.98438 25.346874 309.73438 24.253124Q309.53125 23.378124 309.17188 22.565624Q308.9375 22.05 308.23438 20.815624L308.98438 20.815624Q310.07812 22.284374 310.60938 23.76875Q311.0625 25.05 311.0625 26.440624Q311.0625 28.01875 310.45312 29.503124Q309.84375 30.971874 308.98438 32.08125ZM317.3125 32.08125Q316.4375 30.971874 315.82812 29.503124Q315.23438 28.01875 315.23438 26.440624Q315.23438 25.05 315.67188 23.76875Q316.20312 22.284374 317.3125 20.815624L318.0625 20.815624Q317.35938 22.034374 317.125 22.55Q316.76562 23.3625 316.5625 24.2375Q316.3125 25.33125 316.3125 26.440624Q316.3125 29.26875 318.0625 32.08125L317.3125 32.08125ZM319.20312 23.01875Q319.20312 22.096874 319.65625 21.45625Q320.125 20.815624 321.0 20.815624Q321.8125 20.815624 322.34375 21.39375Q322.875 21.971874 322.875 23.08125Q322.875 24.175 322.32812 24.76875Q321.79688 25.346874 321.01562 25.346874Q320.23438 25.346874 319.71875 24.76875Q319.20312 24.190624 319.20312 23.01875ZM321.03125 21.534374Q320.64062 21.534374 320.375 21.878124Q320.125 22.221874 320.125 23.128124Q320.125 23.95625 320.375 24.3Q320.64062 24.628124 321.03125 24.628124Q321.4375 24.628124 321.6875 24.284374Q321.95312 23.940624 321.95312 23.05Q321.95312 22.20625 321.6875 21.878124Q321.42188 21.534374 321.03125 21.534374ZM321.03125 29.8625L325.73438 20.815624L326.59375 20.815624L321.90625 29.8625L321.03125 29.8625ZM324.75 27.534374Q324.75 26.6125 325.20312 25.971874Q325.67188 25.33125 326.5625 25.33125Q327.375 25.33125 327.90625 25.909374Q328.4375 26.471874 328.4375 27.596874Q328.4375 28.690624 327.89062 29.284374Q327.35938 29.8625 326.5625 29.8625Q325.79688 29.8625 325.26562 29.284374Q324.75 28.70625 324.75 27.534374ZM326.59375 26.05Q326.1875 26.05 325.92188 26.39375Q325.67188 26.7375 325.67188 27.64375Q325.67188 28.45625 325.9375 28.8Q326.20312 29.14375 326.59375 29.14375Q326.98438 29.14375 327.25 28.8Q327.51562 28.45625 327.51562 27.55Q327.51562 26.721874 327.25 26.39375Q326.98438 26.05 326.59375 26.05ZM330.98438 32.08125L330.23438 32.08125Q331.98438 29.26875 331.98438 26.440624Q331.98438 25.346874 331.73438 24.253124Q331.53125 23.378124 331.17188 22.565624Q330.9375 22.05 330.23438 20.815624L330.98438 20.815624Q332.07812 22.284374 332.60938 23.76875Q333.0625 25.05 333.0625 26.440624Q333.0625 28.01875 332.45312 29.503124Q331.84375 30.971874 330.98438 32.08125Z" fill-rule="nonzero"/><path fill="#ea4335" d="M349.5 20.55C349.5 19.997715 349.94772 19.55 350.5 19.55L360.5 19.55C361.05228 19.55 361.5 19.997715 361.5 20.55L361.5 30.55C361.5 31.102285 361.05228 31.55 360.5 31.55L350.5 31.55C349.94772 31.55 349.5 31.102285 349.5 30.55Z" fill-rule="nonzero"/><path fill="#1a1a1a" d="M370.42188 29.55L370.42188 20.95625L373.67188 20.95625Q374.51562 20.95625 374.96875 21.034374Q375.60938 21.14375 376.03125 21.440624Q376.46875 21.7375 376.71875 22.26875Q376.98438 22.8 376.98438 23.440624Q376.98438 24.534374 376.28125 25.3Q375.59375 26.05 373.76562 26.05L371.5625 26.05L371.5625 29.55L370.42188 29.55ZM371.5625 25.05L373.78125 25.05Q374.89062 25.05 375.34375 24.64375Q375.8125 24.221874 375.8125 23.471874Q375.8125 22.940624 375.53125 22.565624Q375.26562 22.175 374.82812 22.05Q374.53125 21.971874 373.76562 21.971874L371.5625 21.971874L371.5625 25.05ZM382.54688 27.55L383.64062 27.675Q383.39062 28.628124 382.6875 29.159374Q381.98438 29.690624 380.90625 29.690624Q379.54688 29.690624 378.73438 28.846874Q377.9375 28.003124 377.9375 26.4875Q377.9375 24.925 378.75 24.065624Q379.5625 23.190624 380.84375 23.190624Q382.09375 23.190624 382.875 24.034374Q383.67188 24.878124 383.67188 26.425Q383.67188 26.51875 383.67188 26.70625L379.03125 26.70625Q379.09375 27.7375 379.60938 28.284374Q380.125 28.815624 380.90625 28.815624Q381.48438 28.815624 381.89062 28.51875Q382.3125 28.20625 382.54688 27.55ZM379.09375 25.846874L382.5625 25.846874Q382.5 25.05 382.17188 24.659374Q381.65625 24.05 380.85938 24.05Q380.125 24.05 379.625 24.534374Q379.14062 25.01875 379.09375 25.846874ZM385.28125 29.55L385.28125 23.33125L386.23438 23.33125L386.23438 24.26875Q386.59375 23.6125 386.89062 23.409374Q387.20312 23.190624 387.57812 23.190624Q388.10938 23.190624 388.65625 23.51875L388.29688 24.503124Q387.90625 24.26875 387.53125 24.26875Q387.17188 24.26875 386.89062 24.4875Q386.625 24.690624 386.51562 25.065624Q386.32812 25.628124 386.32812 26.284374L386.32812 29.55L385.28125 29.55ZM392.07812 25.3625Q392.07812 23.221874 393.21875 22.01875Q394.375 20.8 396.1875 20.8Q397.39062 20.8 398.34375 21.378124Q399.29688 21.940624 399.79688 22.95625Q400.29688 23.971874 400.29688 25.26875Q400.29688 26.565624 399.76562 27.596874Q399.23438 28.628124 398.26562 29.159374Q397.3125 29.690624 396.1875 29.690624Q394.96875 29.690624 394.01562 29.1125Q393.0625 28.51875 392.5625 27.51875Q392.07812 26.503124 392.07812 25.3625ZM393.25 25.378124Q393.25 26.940624 394.07812 27.83125Q394.92188 28.721874 396.1875 28.721874Q397.46875 28.721874 398.29688 27.83125Q399.125 26.925 399.125 25.253124Q399.125 24.20625 398.76562 23.425Q398.42188 22.64375 397.73438 22.221874Q397.04688 21.784374 396.20312 21.784374Q395.0 21.784374 394.125 22.6125Q393.25 23.440624 393.25 25.378124ZM401.28125 29.55L401.28125 23.33125L402.23438 23.33125L402.23438 24.26875Q402.59375 23.6125 402.89062 23.409374Q403.20312 23.190624 403.57812 23.190624Q404.10938 23.190624 404.65625 23.51875L404.29688 24.503124Q403.90625 24.26875 403.53125 24.26875Q403.17188 24.26875 402.89062 24.4875Q402.625 24.690624 402.51562 25.065624Q402.32812 25.628124 402.32812 26.284374L402.32812 29.55L401.28125 29.55ZM409.32812 29.55L409.32812 28.76875Q408.73438 29.690624 407.59375 29.690624Q406.84375 29.690624 406.21875 29.284374Q405.59375 28.8625 405.25 28.128124Q404.90625 27.39375 404.90625 26.440624Q404.90625 25.51875 405.21875 24.753124Q405.53125 23.9875 406.15625 23.596874Q406.78125 23.190624 407.54688 23.190624Q408.10938 23.190624 408.54688 23.425Q408.98438 23.659374 409.26562 24.034374L409.26562 20.95625L410.3125 20.95625L410.3125 29.55L409.32812 29.55ZM406.0 26.440624Q406.0 27.64375 406.5 28.2375Q407.0 28.815624 407.6875 28.815624Q408.375 28.815624 408.85938 28.253124Q409.34375 27.690624 409.34375 26.534374Q409.34375 25.253124 408.84375 24.659374Q408.35938 24.065624 407.64062 24.065624Q406.9375 24.065624 406.46875 24.64375Q406.0 25.20625 406.0 26.440624ZM416.54688 27.55L417.64062 27.675Q417.39062 28.628124 416.6875 29.159374Q415.98438 29.690624 414.90625 29.690624Q413.54688 29.690624 412.73438 28.846874Q411.9375 28.003124 411.9375 26.4875Q411.9375 24.925 412.75 24.065624Q413.5625 23.190624 414.84375 23.190624Q416.09375 23.190624 416.875 24.034374Q417.67188 24.878124 417.67188 26.425Q417.67188 26.51875 417.67188 26.70625L413.03125 26.70625Q413.09375 27.7375 413.60938 28.284374Q414.125 28.815624 414.90625 28.815624Q415.48438 28.815624 415.89062 28.51875Q416.3125 28.20625 416.54688 27.55ZM413.09375 25.846874L416.5625 25.846874Q416.5 25.05 416.17188 24.659374Q415.65625 24.05 414.85938 24.05Q414.125 24.05 413.625 24.534374Q413.14062 25.01875 413.09375 25.846874ZM419.28125 29.55L419.28125 23.33125L420.23438 23.33125L420.23438 24.26875Q420.59375 23.6125 420.89062 23.409374Q421.20312 23.190624 421.57812 23.190624Q422.10938 23.190624 422.65625 23.51875L422.29688 24.503124Q421.90625 24.26875 421.53125 24.26875Q421.17188 24.26875 420.89062 24.4875Q420.625 24.690624 420.51562 25.065624Q420.32812 25.628124 420.32812 26.284374L420.32812 29.55L419.28125 29.55ZM432.5625 26.534374L433.6875 26.83125Q433.32812 28.221874 432.40625 28.95625Q431.48438 29.690624 430.14062 29.690624Q428.75 29.690624 427.875 29.128124Q427.0 28.565624 426.54688 27.503124Q426.09375 26.425 426.09375 25.190624Q426.09375 23.846874 426.60938 22.846874Q427.125 21.846874 428.0625 21.33125Q429.01562 20.815624 430.15625 20.815624Q431.4375 20.815624 432.3125 21.471874Q433.20312 22.128124 433.54688 23.315624L432.42188 23.58125Q432.125 22.64375 431.54688 22.221874Q430.98438 21.784374 430.125 21.784374Q429.14062 21.784374 428.46875 22.26875Q427.8125 22.7375 427.53125 23.534374Q427.26562 24.33125 427.26562 25.190624Q427.26562 26.284374 427.57812 27.096874Q427.90625 27.909374 428.57812 28.315624Q429.25 28.721874 430.04688 28.721874Q431.0 28.721874 431.65625 28.175Q432.32812 27.628124 432.5625 26.534374ZM434.90625 26.440624Q434.90625 24.70625 435.85938 23.878124Q436.65625 23.190624 437.8125 23.190624Q439.09375 23.190624 439.90625 24.034374Q440.73438 24.8625 440.73438 26.346874Q440.73438 27.55 440.375 28.2375Q440.01562 28.925 439.3125 29.315624Q438.625 29.690624 437.8125 29.690624Q436.51562 29.690624 435.70312 28.8625Q434.90625 28.01875 434.90625 26.440624ZM435.98438 26.440624Q435.98438 27.628124 436.5 28.221874Q437.03125 28.815624 437.8125 28.815624Q438.60938 28.815624 439.125 28.221874Q439.64062 27.628124 439.64062 26.409374Q439.64062 25.253124 439.10938 24.659374Q438.59375 24.065624 437.8125 24.065624Q437.03125 24.065624 436.5 24.659374Q435.98438 25.2375 435.98438 26.440624ZM441.875 27.690624L442.90625 27.534374Q443.0 28.159374 443.39062 28.4875Q443.79688 28.815624 444.53125 28.815624Q445.25 28.815624 445.59375 28.534374Q445.95312 28.2375 445.95312 27.83125Q445.95312 27.471874 445.64062 27.26875Q445.42188 27.128124 444.5625 26.909374Q443.40625 26.6125 442.95312 26.409374Q442.51562 26.190624 442.28125 25.815624Q442.04688 25.440624 442.04688 24.971874Q442.04688 24.565624 442.23438 24.20625Q442.42188 23.846874 442.75 23.6125Q443.0 23.440624 443.42188 23.315624Q443.84375 23.190624 444.34375 23.190624Q445.0625 23.190624 445.60938 23.409374Q446.17188 23.6125 446.4375 23.971874Q446.70312 24.33125 446.79688 24.925L445.76562 25.065624Q445.70312 24.596874 445.35938 24.33125Q445.03125 24.05 444.40625 24.05Q443.6875 24.05 443.375 24.3Q443.0625 24.534374 443.0625 24.8625Q443.0625 25.065624 443.1875 25.221874Q443.32812 25.39375 443.59375 25.503124Q443.75 25.565624 444.53125 25.76875Q445.65625 26.08125 446.09375 26.26875Q446.53125 26.45625 446.78125 26.815624Q447.03125 27.175 447.03125 27.721874Q447.03125 28.253124 446.71875 28.721874Q446.42188 29.175 445.84375 29.440624Q445.26562 29.690624 444.53125 29.690624Q443.3125 29.690624 442.67188 29.190624Q442.04688 28.675 441.875 27.690624ZM451.59375 28.6125L451.75 29.534374Q451.29688 29.628124 450.95312 29.628124Q450.375 29.628124 450.0625 29.45625Q449.75 29.26875 449.60938 28.971874Q449.48438 28.675 449.48438 27.721874L449.48438 24.14375L448.71875 24.14375L448.71875 23.33125L449.48438 23.33125L449.48438 21.784374L450.53125 21.159374L450.53125 23.33125L451.59375 23.33125L451.59375 24.14375L450.53125 24.14375L450.53125 27.784374Q450.53125 28.2375 450.57812 28.3625Q450.64062 28.4875 450.76562 28.565624Q450.89062 28.64375 451.125 28.64375Q451.3125 28.64375 451.59375 28.6125ZM457.3125 32.08125Q456.4375 30.971874 455.82812 29.503124Q455.23438 28.01875 455.23438 26.440624Q455.23438 25.05 455.67188 23.76875Q456.20312 22.284374 457.3125 20.815624L458.0625 20.815624Q457.35938 22.034374 457.125 22.55Q456.76562 23.3625 456.5625 24.2375Q456.3125 25.33125 456.3125 26.440624Q456.3125 29.26875 458.0625 32.08125L457.3125 32.08125ZM459.20312 23.01875Q459.20312 22.096874 459.65625 21.45625Q460.125 20.815624 461.0 20.815624Q461.8125 20.815624 462.34375 21.39375Q462.875 21.971874 462.875 23.08125Q462.875 24.175 462.32812 24.76875Q461.79688 25.346874 461.01562 25.346874Q460.23438 25.346874 459.71875 24.76875Q459.20312 24.190624 459.20312 23.01875ZM461.03125 21.534374Q460.64062 21.534374 460.375 21.878124Q460.125 22.221874 460.125 23.128124Q460.125 23.95625 460.375 24.3Q460.64062 24.628124 461.03125 24.628124Q461.4375 24.628124 461.6875 24.284374Q461.95312 23.940624 461.95312 23.05Q461.95312 22.20625 461.6875 21.878124Q461.42188 21.534374 461.03125 21.534374ZM461.03125 29.8625L465.73438 20.815624L466.59375 20.815624L461.90625 29.8625L461.03125 29.8625ZM464.75 27.534374Q464.75 26.6125 465.20312 25.971874Q465.67188 25.33125 466.5625 25.33125Q467.375 25.33125 467.90625 25.909374Q468.4375 26.471874 468.4375 27.596874Q468.4375 28.690624 467.89062 29.284374Q467.35938 29.8625 466.5625 29.8625Q465.79688 29.8625 465.26562 29.284374Q464.75 28.70625 464.75 27.534374ZM466.59375 26.05Q466.1875 26.05 465.92188 26.39375Q465.67188 26.7375 465.67188 27.64375Q465.67188 28.45625 465.9375 28.8Q466.20312 29.14375 466.59375 29.14375Q466.98438 29.14375 467.25 28.8Q467.51562 28.45625 467.51562 27.55Q467.51562 26.721874 467.25 26.39375Q466.98438 26.05 466.59375 26.05ZM470.98438 32.08125L470.23438 32.08125Q471.98438 29.26875 471.98438 26.440624Q471.98438 25.346874 471.73438 24.253124Q471.53125 23.378124 471.17188 22.565624Q470.9375 22.05 470.23438 20.815624L470.98438 20.815624Q472.07812 22.284374 472.60938 23.76875Q473.0625 25.05 473.0625 26.440624Q473.0625 28.01875 472.45312 29.503124Q471.84375 30.971874 470.98438 32.08125Z" fill-rule="nonzero"/></svg>